<svg width="14" height="11" viewBox="0 0 14 11" fill="none" xmlns="http://www.w3.org/2000/svg">
<path d="M9.707 1.29302C9.61475 1.19751 9.50441 1.12133 9.3824 1.06892C9.2604 1.01651 9.12918 0.988924 8.9964 0.98777C8.86362 0.986616 8.73194 1.01192 8.60905 1.0622C8.48615 1.11248 8.3745 1.18673 8.28061 1.28062C8.18671 1.37452 8.11246 1.48617 8.06218 1.60907C8.0119 1.73196 7.9866 1.86364 7.98775 1.99642C7.9889 2.1292 8.01649 2.26042 8.0689 2.38242C8.12131 2.50443 8.19749 2.61477 8.293 2.70702L10.586 5.00002H1C0.734784 5.00002 0.48043 5.10538 0.292893 5.29291C0.105357 5.48045 0 5.7348 0 6.00002C0 6.26524 0.105357 6.51959 0.292893 6.70713C0.48043 6.89466 0.734784 7.00002 1 7.00002H10.586L8.293 9.29302C8.11084 9.48162 8.01005 9.73422 8.01233 9.99642C8.0146 10.2586 8.11977 10.5094 8.30518 10.6948C8.49059 10.8802 8.7414 10.9854 9.0036 10.9877C9.2658 10.99 9.5184 10.8892 9.707 10.707L13.707 6.70702C13.8945 6.51949 13.9998 6.26518 13.9998 6.00002C13.9998 5.73486 13.8945 5.48055 13.707 5.29302L9.707 1.29302Z" fill="#F0FF9D"/>
</svg>
