<svg width="1437" height="976" viewBox="0 0 1437 976" fill="none" xmlns="http://www.w3.org/2000/svg">
<g clip-path="url(#clip0_8_78)">
<mask id="mask0_8_78" style="mask-type:alpha" maskUnits="userSpaceOnUse" x="-1" y="-7" width="1440" height="1440">
<rect width="1440" height="1197" transform="translate(-1 -7)" fill="url(#paint0_radial_8_78)"/>
</mask>
<g mask="url(#mask0_8_78)">
<g clip-path="url(#clip1_8_78)">
<mask id="path-3-inside-1_8_78" fill="white">
<path d="M-49 -7H47V89H-49V-7Z"/>
</mask>
<path d="M47 89V90H48V89H47ZM46 -7V89H48V-7H46ZM47 88H-49V90H47V88Z" fill="#D0D5DD" fill-opacity="0.04" mask="url(#path-3-inside-1_8_78)"/>
<mask id="path-5-inside-2_8_78" fill="white">
<path d="M47 -7H143V89H47V-7Z"/>
</mask>
<path d="M143 89V90H144V89H143ZM142 -7V89H144V-7H142ZM143 88H47V90H143V88Z" fill="#D0D5DD" fill-opacity="0.04" mask="url(#path-5-inside-2_8_78)"/>
<mask id="path-7-inside-3_8_78" fill="white">
<path d="M143 -7H239V89H143V-7Z"/>
</mask>
<path d="M239 89V90H240V89H239ZM238 -7V89H240V-7H238ZM239 88H143V90H239V88Z" fill="#D0D5DD" fill-opacity="0.04" mask="url(#path-7-inside-3_8_78)"/>
<mask id="path-9-inside-4_8_78" fill="white">
<path d="M239 -7H335V89H239V-7Z"/>
</mask>
<path d="M335 89V90H336V89H335ZM334 -7V89H336V-7H334ZM335 88H239V90H335V88Z" fill="#D0D5DD" fill-opacity="0.04" mask="url(#path-9-inside-4_8_78)"/>
<mask id="path-11-inside-5_8_78" fill="white">
<path d="M335 -7H431V89H335V-7Z"/>
</mask>
<path d="M431 89V90H432V89H431ZM430 -7V89H432V-7H430ZM431 88H335V90H431V88Z" fill="#D0D5DD" fill-opacity="0.04" mask="url(#path-11-inside-5_8_78)"/>
<mask id="path-13-inside-6_8_78" fill="white">
<path d="M431 -7H527V89H431V-7Z"/>
</mask>
<path d="M527 89V90H528V89H527ZM526 -7V89H528V-7H526ZM527 88H431V90H527V88Z" fill="#D0D5DD" fill-opacity="0.04" mask="url(#path-13-inside-6_8_78)"/>
<mask id="path-15-inside-7_8_78" fill="white">
<path d="M527 -7H623V89H527V-7Z"/>
</mask>
<path d="M623 89V90H624V89H623ZM622 -7V89H624V-7H622ZM623 88H527V90H623V88Z" fill="#D0D5DD" fill-opacity="0.04" mask="url(#path-15-inside-7_8_78)"/>
<mask id="path-17-inside-8_8_78" fill="white">
<path d="M623 -7H719V89H623V-7Z"/>
</mask>
<path d="M719 89V90H720V89H719ZM718 -7V89H720V-7H718ZM719 88H623V90H719V88Z" fill="#D0D5DD" fill-opacity="0.04" mask="url(#path-17-inside-8_8_78)"/>
<mask id="path-19-inside-9_8_78" fill="white">
<path d="M719 -7H815V89H719V-7Z"/>
</mask>
<path d="M815 89V90H816V89H815ZM814 -7V89H816V-7H814ZM815 88H719V90H815V88Z" fill="#D0D5DD" fill-opacity="0.04" mask="url(#path-19-inside-9_8_78)"/>
<mask id="path-21-inside-10_8_78" fill="white">
<path d="M815 -7H911V89H815V-7Z"/>
</mask>
<path d="M911 89V90H912V89H911ZM910 -7V89H912V-7H910ZM911 88H815V90H911V88Z" fill="#D0D5DD" fill-opacity="0.04" mask="url(#path-21-inside-10_8_78)"/>
<mask id="path-23-inside-11_8_78" fill="white">
<path d="M911 -7H1007V89H911V-7Z"/>
</mask>
<path d="M1007 89V90H1008V89H1007ZM1006 -7V89H1008V-7H1006ZM1007 88H911V90H1007V88Z" fill="#D0D5DD" fill-opacity="0.04" mask="url(#path-23-inside-11_8_78)"/>
<mask id="path-25-inside-12_8_78" fill="white">
<path d="M1007 -7H1103V89H1007V-7Z"/>
</mask>
<path d="M1103 89V90H1104V89H1103ZM1102 -7V89H1104V-7H1102ZM1103 88H1007V90H1103V88Z" fill="#D0D5DD" fill-opacity="0.04" mask="url(#path-25-inside-12_8_78)"/>
<mask id="path-27-inside-13_8_78" fill="white">
<path d="M1103 -7H1199V89H1103V-7Z"/>
</mask>
<path d="M1199 89V90H1200V89H1199ZM1198 -7V89H1200V-7H1198ZM1199 88H1103V90H1199V88Z" fill="#D0D5DD" fill-opacity="0.04" mask="url(#path-27-inside-13_8_78)"/>
<mask id="path-29-inside-14_8_78" fill="white">
<path d="M1199 -7H1295V89H1199V-7Z"/>
</mask>
<path d="M1295 89V90H1296V89H1295ZM1294 -7V89H1296V-7H1294ZM1295 88H1199V90H1295V88Z" fill="#D0D5DD" fill-opacity="0.04" mask="url(#path-29-inside-14_8_78)"/>
<mask id="path-31-inside-15_8_78" fill="white">
<path d="M1295 -7H1391V89H1295V-7Z"/>
</mask>
<path d="M1391 89V90H1392V89H1391ZM1390 -7V89H1392V-7H1390ZM1391 88H1295V90H1391V88Z" fill="#D0D5DD" fill-opacity="0.04" mask="url(#path-31-inside-15_8_78)"/>
<mask id="path-33-inside-16_8_78" fill="white">
<path d="M1391 -7H1487V89H1391V-7Z"/>
</mask>
<path d="M1487 89V90H1488V89H1487ZM1486 -7V89H1488V-7H1486ZM1487 88H1391V90H1487V88Z" fill="#D0D5DD" fill-opacity="0.04" mask="url(#path-33-inside-16_8_78)"/>
<mask id="path-35-inside-17_8_78" fill="white">
<path d="M-49 89H47V185H-49V89Z"/>
</mask>
<path d="M47 185V186H48V185H47ZM46 89V185H48V89H46ZM47 184H-49V186H47V184Z" fill="#D0D5DD" fill-opacity="0.04" mask="url(#path-35-inside-17_8_78)"/>
<mask id="path-37-inside-18_8_78" fill="white">
<path d="M47 89H143V185H47V89Z"/>
</mask>
<path d="M143 185V186H144V185H143ZM142 89V185H144V89H142ZM143 184H47V186H143V184Z" fill="#D0D5DD" fill-opacity="0.04" mask="url(#path-37-inside-18_8_78)"/>
<mask id="path-39-inside-19_8_78" fill="white">
<path d="M143 89H239V185H143V89Z"/>
</mask>
<path d="M239 185V186H240V185H239ZM238 89V185H240V89H238ZM239 184H143V186H239V184Z" fill="#D0D5DD" fill-opacity="0.04" mask="url(#path-39-inside-19_8_78)"/>
<mask id="path-41-inside-20_8_78" fill="white">
<path d="M239 89H335V185H239V89Z"/>
</mask>
<path d="M239 89H335V185H239V89Z" fill="#F2F4F7" fill-opacity="0.02"/>
<path d="M335 185V186H336V185H335ZM334 89V185H336V89H334ZM335 184H239V186H335V184Z" fill="#D0D5DD" fill-opacity="0.04" mask="url(#path-41-inside-20_8_78)"/>
<mask id="path-43-inside-21_8_78" fill="white">
<path d="M335 89H431V185H335V89Z"/>
</mask>
<path d="M431 185V186H432V185H431ZM430 89V185H432V89H430ZM431 184H335V186H431V184Z" fill="#D0D5DD" fill-opacity="0.04" mask="url(#path-43-inside-21_8_78)"/>
<mask id="path-45-inside-22_8_78" fill="white">
<path d="M431 89H527V185H431V89Z"/>
</mask>
<path d="M527 185V186H528V185H527ZM526 89V185H528V89H526ZM527 184H431V186H527V184Z" fill="#D0D5DD" fill-opacity="0.04" mask="url(#path-45-inside-22_8_78)"/>
<mask id="path-47-inside-23_8_78" fill="white">
<path d="M527 89H623V185H527V89Z"/>
</mask>
<path d="M623 185V186H624V185H623ZM622 89V185H624V89H622ZM623 184H527V186H623V184Z" fill="#D0D5DD" fill-opacity="0.04" mask="url(#path-47-inside-23_8_78)"/>
<mask id="path-49-inside-24_8_78" fill="white">
<path d="M623 89H719V185H623V89Z"/>
</mask>
<path d="M719 185V186H720V185H719ZM718 89V185H720V89H718ZM719 184H623V186H719V184Z" fill="#D0D5DD" fill-opacity="0.04" mask="url(#path-49-inside-24_8_78)"/>
<mask id="path-51-inside-25_8_78" fill="white">
<path d="M719 89H815V185H719V89Z"/>
</mask>
<path d="M815 185V186H816V185H815ZM814 89V185H816V89H814ZM815 184H719V186H815V184Z" fill="#D0D5DD" fill-opacity="0.04" mask="url(#path-51-inside-25_8_78)"/>
<mask id="path-53-inside-26_8_78" fill="white">
<path d="M815 89H911V185H815V89Z"/>
</mask>
<path d="M911 185V186H912V185H911ZM910 89V185H912V89H910ZM911 184H815V186H911V184Z" fill="#D0D5DD" fill-opacity="0.04" mask="url(#path-53-inside-26_8_78)"/>
<mask id="path-55-inside-27_8_78" fill="white">
<path d="M911 89H1007V185H911V89Z"/>
</mask>
<path d="M1007 185V186H1008V185H1007ZM1006 89V185H1008V89H1006ZM1007 184H911V186H1007V184Z" fill="#D0D5DD" fill-opacity="0.04" mask="url(#path-55-inside-27_8_78)"/>
<mask id="path-57-inside-28_8_78" fill="white">
<path d="M1007 89H1103V185H1007V89Z"/>
</mask>
<path d="M1103 185V186H1104V185H1103ZM1102 89V185H1104V89H1102ZM1103 184H1007V186H1103V184Z" fill="#D0D5DD" fill-opacity="0.04" mask="url(#path-57-inside-28_8_78)"/>
<mask id="path-59-inside-29_8_78" fill="white">
<path d="M1103 89H1199V185H1103V89Z"/>
</mask>
<path d="M1103 89H1199V185H1103V89Z" fill="#F2F4F7" fill-opacity="0.02"/>
<path d="M1199 185V186H1200V185H1199ZM1198 89V185H1200V89H1198ZM1199 184H1103V186H1199V184Z" fill="#D0D5DD" fill-opacity="0.04" mask="url(#path-59-inside-29_8_78)"/>
<mask id="path-61-inside-30_8_78" fill="white">
<path d="M1199 89H1295V185H1199V89Z"/>
</mask>
<path d="M1295 185V186H1296V185H1295ZM1294 89V185H1296V89H1294ZM1295 184H1199V186H1295V184Z" fill="#D0D5DD" fill-opacity="0.04" mask="url(#path-61-inside-30_8_78)"/>
<mask id="path-63-inside-31_8_78" fill="white">
<path d="M1295 89H1391V185H1295V89Z"/>
</mask>
<path d="M1391 185V186H1392V185H1391ZM1390 89V185H1392V89H1390ZM1391 184H1295V186H1391V184Z" fill="#D0D5DD" fill-opacity="0.04" mask="url(#path-63-inside-31_8_78)"/>
<mask id="path-65-inside-32_8_78" fill="white">
<path d="M1391 89H1487V185H1391V89Z"/>
</mask>
<path d="M1487 185V186H1488V185H1487ZM1486 89V185H1488V89H1486ZM1487 184H1391V186H1487V184Z" fill="#D0D5DD" fill-opacity="0.04" mask="url(#path-65-inside-32_8_78)"/>
<mask id="path-67-inside-33_8_78" fill="white">
<path d="M-49 185H47V281H-49V185Z"/>
</mask>
<path d="M47 281V282H48V281H47ZM46 185V281H48V185H46ZM47 280H-49V282H47V280Z" fill="#D0D5DD" fill-opacity="0.04" mask="url(#path-67-inside-33_8_78)"/>
<mask id="path-69-inside-34_8_78" fill="white">
<path d="M47 185H143V281H47V185Z"/>
</mask>
<path d="M143 281V282H144V281H143ZM142 185V281H144V185H142ZM143 280H47V282H143V280Z" fill="#D0D5DD" fill-opacity="0.04" mask="url(#path-69-inside-34_8_78)"/>
<mask id="path-71-inside-35_8_78" fill="white">
<path d="M143 185H239V281H143V185Z"/>
</mask>
<path d="M239 281V282H240V281H239ZM238 185V281H240V185H238ZM239 280H143V282H239V280Z" fill="#D0D5DD" fill-opacity="0.04" mask="url(#path-71-inside-35_8_78)"/>
<mask id="path-73-inside-36_8_78" fill="white">
<path d="M239 185H335V281H239V185Z"/>
</mask>
<path d="M335 281V282H336V281H335ZM334 185V281H336V185H334ZM335 280H239V282H335V280Z" fill="#D0D5DD" fill-opacity="0.04" mask="url(#path-73-inside-36_8_78)"/>
<mask id="path-75-inside-37_8_78" fill="white">
<path d="M335 185H431V281H335V185Z"/>
</mask>
<path d="M431 281V282H432V281H431ZM430 185V281H432V185H430ZM431 280H335V282H431V280Z" fill="#D0D5DD" fill-opacity="0.04" mask="url(#path-75-inside-37_8_78)"/>
<mask id="path-77-inside-38_8_78" fill="white">
<path d="M431 185H527V281H431V185Z"/>
</mask>
<path d="M431 185H527V281H431V185Z" fill="#F2F4F7" fill-opacity="0.02"/>
<path d="M527 281V282H528V281H527ZM526 185V281H528V185H526ZM527 280H431V282H527V280Z" fill="#D0D5DD" fill-opacity="0.04" mask="url(#path-77-inside-38_8_78)"/>
<mask id="path-79-inside-39_8_78" fill="white">
<path d="M527 185H623V281H527V185Z"/>
</mask>
<path d="M623 281V282H624V281H623ZM622 185V281H624V185H622ZM623 280H527V282H623V280Z" fill="#D0D5DD" fill-opacity="0.04" mask="url(#path-79-inside-39_8_78)"/>
<mask id="path-81-inside-40_8_78" fill="white">
<path d="M623 185H719V281H623V185Z"/>
</mask>
<path d="M719 281V282H720V281H719ZM718 185V281H720V185H718ZM719 280H623V282H719V280Z" fill="#D0D5DD" fill-opacity="0.04" mask="url(#path-81-inside-40_8_78)"/>
<mask id="path-83-inside-41_8_78" fill="white">
<path d="M719 185H815V281H719V185Z"/>
</mask>
<path d="M815 281V282H816V281H815ZM814 185V281H816V185H814ZM815 280H719V282H815V280Z" fill="#D0D5DD" fill-opacity="0.04" mask="url(#path-83-inside-41_8_78)"/>
<mask id="path-85-inside-42_8_78" fill="white">
<path d="M815 185H911V281H815V185Z"/>
</mask>
<path d="M815 185H911V281H815V185Z" fill="#F2F4F7" fill-opacity="0.02"/>
<path d="M911 281V282H912V281H911ZM910 185V281H912V185H910ZM911 280H815V282H911V280Z" fill="#D0D5DD" fill-opacity="0.04" mask="url(#path-85-inside-42_8_78)"/>
<mask id="path-87-inside-43_8_78" fill="white">
<path d="M911 185H1007V281H911V185Z"/>
</mask>
<path d="M1007 281V282H1008V281H1007ZM1006 185V281H1008V185H1006ZM1007 280H911V282H1007V280Z" fill="#D0D5DD" fill-opacity="0.04" mask="url(#path-87-inside-43_8_78)"/>
<mask id="path-89-inside-44_8_78" fill="white">
<path d="M1007 185H1103V281H1007V185Z"/>
</mask>
<path d="M1103 281V282H1104V281H1103ZM1102 185V281H1104V185H1102ZM1103 280H1007V282H1103V280Z" fill="#D0D5DD" fill-opacity="0.04" mask="url(#path-89-inside-44_8_78)"/>
<mask id="path-91-inside-45_8_78" fill="white">
<path d="M1103 185H1199V281H1103V185Z"/>
</mask>
<path d="M1199 281V282H1200V281H1199ZM1198 185V281H1200V185H1198ZM1199 280H1103V282H1199V280Z" fill="#D0D5DD" fill-opacity="0.04" mask="url(#path-91-inside-45_8_78)"/>
<mask id="path-93-inside-46_8_78" fill="white">
<path d="M1199 185H1295V281H1199V185Z"/>
</mask>
<path d="M1295 281V282H1296V281H1295ZM1294 185V281H1296V185H1294ZM1295 280H1199V282H1295V280Z" fill="#D0D5DD" fill-opacity="0.04" mask="url(#path-93-inside-46_8_78)"/>
<mask id="path-95-inside-47_8_78" fill="white">
<path d="M1295 185H1391V281H1295V185Z"/>
</mask>
<path d="M1391 281V282H1392V281H1391ZM1390 185V281H1392V185H1390ZM1391 280H1295V282H1391V280Z" fill="#D0D5DD" fill-opacity="0.04" mask="url(#path-95-inside-47_8_78)"/>
<mask id="path-97-inside-48_8_78" fill="white">
<path d="M1391 185H1487V281H1391V185Z"/>
</mask>
<path d="M1487 281V282H1488V281H1487ZM1486 185V281H1488V185H1486ZM1487 280H1391V282H1487V280Z" fill="#D0D5DD" fill-opacity="0.04" mask="url(#path-97-inside-48_8_78)"/>
<mask id="path-99-inside-49_8_78" fill="white">
<path d="M-49 281H47V377H-49V281Z"/>
</mask>
<path d="M-49 281H47V377H-49V281Z" fill="#F2F4F7" fill-opacity="0.02"/>
<path d="M47 377V378H48V377H47ZM46 281V377H48V281H46ZM47 376H-49V378H47V376Z" fill="#D0D5DD" fill-opacity="0.04" mask="url(#path-99-inside-49_8_78)"/>
<mask id="path-101-inside-50_8_78" fill="white">
<path d="M47 281H143V377H47V281Z"/>
</mask>
<path d="M143 377V378H144V377H143ZM142 281V377H144V281H142ZM143 376H47V378H143V376Z" fill="#D0D5DD" fill-opacity="0.04" mask="url(#path-101-inside-50_8_78)"/>
<mask id="path-103-inside-51_8_78" fill="white">
<path d="M143 281H239V377H143V281Z"/>
</mask>
<path d="M239 377V378H240V377H239ZM238 281V377H240V281H238ZM239 376H143V378H239V376Z" fill="#D0D5DD" fill-opacity="0.04" mask="url(#path-103-inside-51_8_78)"/>
<mask id="path-105-inside-52_8_78" fill="white">
<path d="M239 281H335V377H239V281Z"/>
</mask>
<path d="M335 377V378H336V377H335ZM334 281V377H336V281H334ZM335 376H239V378H335V376Z" fill="#D0D5DD" fill-opacity="0.04" mask="url(#path-105-inside-52_8_78)"/>
<mask id="path-107-inside-53_8_78" fill="white">
<path d="M335 281H431V377H335V281Z"/>
</mask>
<path d="M431 377V378H432V377H431ZM430 281V377H432V281H430ZM431 376H335V378H431V376Z" fill="#D0D5DD" fill-opacity="0.04" mask="url(#path-107-inside-53_8_78)"/>
<mask id="path-109-inside-54_8_78" fill="white">
<path d="M431 281H527V377H431V281Z"/>
</mask>
<path d="M527 377V378H528V377H527ZM526 281V377H528V281H526ZM527 376H431V378H527V376Z" fill="#D0D5DD" fill-opacity="0.04" mask="url(#path-109-inside-54_8_78)"/>
<mask id="path-111-inside-55_8_78" fill="white">
<path d="M527 281H623V377H527V281Z"/>
</mask>
<path d="M623 377V378H624V377H623ZM622 281V377H624V281H622ZM623 376H527V378H623V376Z" fill="#D0D5DD" fill-opacity="0.04" mask="url(#path-111-inside-55_8_78)"/>
<mask id="path-113-inside-56_8_78" fill="white">
<path d="M623 281H719V377H623V281Z"/>
</mask>
<path d="M719 377V378H720V377H719ZM718 281V377H720V281H718ZM719 376H623V378H719V376Z" fill="#D0D5DD" fill-opacity="0.04" mask="url(#path-113-inside-56_8_78)"/>
<mask id="path-115-inside-57_8_78" fill="white">
<path d="M719 281H815V377H719V281Z"/>
</mask>
<path d="M815 377V378H816V377H815ZM814 281V377H816V281H814ZM815 376H719V378H815V376Z" fill="#D0D5DD" fill-opacity="0.04" mask="url(#path-115-inside-57_8_78)"/>
<mask id="path-117-inside-58_8_78" fill="white">
<path d="M815 281H911V377H815V281Z"/>
</mask>
<path d="M911 377V378H912V377H911ZM910 281V377H912V281H910ZM911 376H815V378H911V376Z" fill="#D0D5DD" fill-opacity="0.04" mask="url(#path-117-inside-58_8_78)"/>
<mask id="path-119-inside-59_8_78" fill="white">
<path d="M911 281H1007V377H911V281Z"/>
</mask>
<path d="M1007 377V378H1008V377H1007ZM1006 281V377H1008V281H1006ZM1007 376H911V378H1007V376Z" fill="#D0D5DD" fill-opacity="0.04" mask="url(#path-119-inside-59_8_78)"/>
<mask id="path-121-inside-60_8_78" fill="white">
<path d="M1007 281H1103V377H1007V281Z"/>
</mask>
<path d="M1103 377V378H1104V377H1103ZM1102 281V377H1104V281H1102ZM1103 376H1007V378H1103V376Z" fill="#D0D5DD" fill-opacity="0.04" mask="url(#path-121-inside-60_8_78)"/>
<mask id="path-123-inside-61_8_78" fill="white">
<path d="M1103 281H1199V377H1103V281Z"/>
</mask>
<path d="M1103 281H1199V377H1103V281Z" fill="#F2F4F7" fill-opacity="0.02"/>
<path d="M1199 377V378H1200V377H1199ZM1198 281V377H1200V281H1198ZM1199 376H1103V378H1199V376Z" fill="#D0D5DD" fill-opacity="0.04" mask="url(#path-123-inside-61_8_78)"/>
<mask id="path-125-inside-62_8_78" fill="white">
<path d="M1199 281H1295V377H1199V281Z"/>
</mask>
<path d="M1295 377V378H1296V377H1295ZM1294 281V377H1296V281H1294ZM1295 376H1199V378H1295V376Z" fill="#D0D5DD" fill-opacity="0.04" mask="url(#path-125-inside-62_8_78)"/>
<mask id="path-127-inside-63_8_78" fill="white">
<path d="M1295 281H1391V377H1295V281Z"/>
</mask>
<path d="M1391 377V378H1392V377H1391ZM1390 281V377H1392V281H1390ZM1391 376H1295V378H1391V376Z" fill="#D0D5DD" fill-opacity="0.04" mask="url(#path-127-inside-63_8_78)"/>
<mask id="path-129-inside-64_8_78" fill="white">
<path d="M1391 281H1487V377H1391V281Z"/>
</mask>
<path d="M1487 377V378H1488V377H1487ZM1486 281V377H1488V281H1486ZM1487 376H1391V378H1487V376Z" fill="#D0D5DD" fill-opacity="0.04" mask="url(#path-129-inside-64_8_78)"/>
<mask id="path-131-inside-65_8_78" fill="white">
<path d="M-49 377H47V473H-49V377Z"/>
</mask>
<path d="M47 473V474H48V473H47ZM46 377V473H48V377H46ZM47 472H-49V474H47V472Z" fill="#D0D5DD" fill-opacity="0.04" mask="url(#path-131-inside-65_8_78)"/>
<mask id="path-133-inside-66_8_78" fill="white">
<path d="M47 377H143V473H47V377Z"/>
</mask>
<path d="M143 473V474H144V473H143ZM142 377V473H144V377H142ZM143 472H47V474H143V472Z" fill="#D0D5DD" fill-opacity="0.04" mask="url(#path-133-inside-66_8_78)"/>
<mask id="path-135-inside-67_8_78" fill="white">
<path d="M143 377H239V473H143V377Z"/>
</mask>
<path d="M239 473V474H240V473H239ZM238 377V473H240V377H238ZM239 472H143V474H239V472Z" fill="#D0D5DD" fill-opacity="0.04" mask="url(#path-135-inside-67_8_78)"/>
<mask id="path-137-inside-68_8_78" fill="white">
<path d="M239 377H335V473H239V377Z"/>
</mask>
<path d="M335 473V474H336V473H335ZM334 377V473H336V377H334ZM335 472H239V474H335V472Z" fill="#D0D5DD" fill-opacity="0.04" mask="url(#path-137-inside-68_8_78)"/>
<mask id="path-139-inside-69_8_78" fill="white">
<path d="M335 377H431V473H335V377Z"/>
</mask>
<path d="M431 473V474H432V473H431ZM430 377V473H432V377H430ZM431 472H335V474H431V472Z" fill="#D0D5DD" fill-opacity="0.04" mask="url(#path-139-inside-69_8_78)"/>
<mask id="path-141-inside-70_8_78" fill="white">
<path d="M431 377H527V473H431V377Z"/>
</mask>
<path d="M527 473V474H528V473H527ZM526 377V473H528V377H526ZM527 472H431V474H527V472Z" fill="#D0D5DD" fill-opacity="0.04" mask="url(#path-141-inside-70_8_78)"/>
<mask id="path-143-inside-71_8_78" fill="white">
<path d="M527 377H623V473H527V377Z"/>
</mask>
<path d="M527 377H623V473H527V377Z" fill="#F2F4F7" fill-opacity="0.02"/>
<path d="M623 473V474H624V473H623ZM622 377V473H624V377H622ZM623 472H527V474H623V472Z" fill="#D0D5DD" fill-opacity="0.04" mask="url(#path-143-inside-71_8_78)"/>
<mask id="path-145-inside-72_8_78" fill="white">
<path d="M623 377H719V473H623V377Z"/>
</mask>
<path d="M719 473V474H720V473H719ZM718 377V473H720V377H718ZM719 472H623V474H719V472Z" fill="#D0D5DD" fill-opacity="0.04" mask="url(#path-145-inside-72_8_78)"/>
<mask id="path-147-inside-73_8_78" fill="white">
<path d="M719 377H815V473H719V377Z"/>
</mask>
<path d="M815 473V474H816V473H815ZM814 377V473H816V377H814ZM815 472H719V474H815V472Z" fill="#D0D5DD" fill-opacity="0.04" mask="url(#path-147-inside-73_8_78)"/>
<mask id="path-149-inside-74_8_78" fill="white">
<path d="M815 377H911V473H815V377Z"/>
</mask>
<path d="M911 473V474H912V473H911ZM910 377V473H912V377H910ZM911 472H815V474H911V472Z" fill="#D0D5DD" fill-opacity="0.04" mask="url(#path-149-inside-74_8_78)"/>
<mask id="path-151-inside-75_8_78" fill="white">
<path d="M911 377H1007V473H911V377Z"/>
</mask>
<path d="M1007 473V474H1008V473H1007ZM1006 377V473H1008V377H1006ZM1007 472H911V474H1007V472Z" fill="#D0D5DD" fill-opacity="0.04" mask="url(#path-151-inside-75_8_78)"/>
<mask id="path-153-inside-76_8_78" fill="white">
<path d="M1007 377H1103V473H1007V377Z"/>
</mask>
<path d="M1103 473V474H1104V473H1103ZM1102 377V473H1104V377H1102ZM1103 472H1007V474H1103V472Z" fill="#D0D5DD" fill-opacity="0.04" mask="url(#path-153-inside-76_8_78)"/>
<mask id="path-155-inside-77_8_78" fill="white">
<path d="M1103 377H1199V473H1103V377Z"/>
</mask>
<path d="M1199 473V474H1200V473H1199ZM1198 377V473H1200V377H1198ZM1199 472H1103V474H1199V472Z" fill="#D0D5DD" fill-opacity="0.04" mask="url(#path-155-inside-77_8_78)"/>
<mask id="path-157-inside-78_8_78" fill="white">
<path d="M1199 377H1295V473H1199V377Z"/>
</mask>
<path d="M1295 473V474H1296V473H1295ZM1294 377V473H1296V377H1294ZM1295 472H1199V474H1295V472Z" fill="#D0D5DD" fill-opacity="0.04" mask="url(#path-157-inside-78_8_78)"/>
<mask id="path-159-inside-79_8_78" fill="white">
<path d="M1295 377H1391V473H1295V377Z"/>
</mask>
<path d="M1391 473V474H1392V473H1391ZM1390 377V473H1392V377H1390ZM1391 472H1295V474H1391V472Z" fill="#D0D5DD" fill-opacity="0.04" mask="url(#path-159-inside-79_8_78)"/>
<mask id="path-161-inside-80_8_78" fill="white">
<path d="M1391 377H1487V473H1391V377Z"/>
</mask>
<path d="M1487 473V474H1488V473H1487ZM1486 377V473H1488V377H1486ZM1487 472H1391V474H1487V472Z" fill="#D0D5DD" fill-opacity="0.04" mask="url(#path-161-inside-80_8_78)"/>
<mask id="path-163-inside-81_8_78" fill="white">
<path d="M-49 473H47V569H-49V473Z"/>
</mask>
<path d="M47 569V570H48V569H47ZM46 473V569H48V473H46ZM47 568H-49V570H47V568Z" fill="#D0D5DD" fill-opacity="0.04" mask="url(#path-163-inside-81_8_78)"/>
<mask id="path-165-inside-82_8_78" fill="white">
<path d="M47 473H143V569H47V473Z"/>
</mask>
<path d="M143 569V570H144V569H143ZM142 473V569H144V473H142ZM143 568H47V570H143V568Z" fill="#D0D5DD" fill-opacity="0.04" mask="url(#path-165-inside-82_8_78)"/>
<mask id="path-167-inside-83_8_78" fill="white">
<path d="M143 473H239V569H143V473Z"/>
</mask>
<path d="M239 569V570H240V569H239ZM238 473V569H240V473H238ZM239 568H143V570H239V568Z" fill="#D0D5DD" fill-opacity="0.04" mask="url(#path-167-inside-83_8_78)"/>
<mask id="path-169-inside-84_8_78" fill="white">
<path d="M239 473H335V569H239V473Z"/>
</mask>
<path d="M239 473H335V569H239V473Z" fill="#F2F4F7" fill-opacity="0.02"/>
<path d="M335 569V570H336V569H335ZM334 473V569H336V473H334ZM335 568H239V570H335V568Z" fill="#D0D5DD" fill-opacity="0.04" mask="url(#path-169-inside-84_8_78)"/>
<mask id="path-171-inside-85_8_78" fill="white">
<path d="M335 473H431V569H335V473Z"/>
</mask>
<path d="M431 569V570H432V569H431ZM430 473V569H432V473H430ZM431 568H335V570H431V568Z" fill="#D0D5DD" fill-opacity="0.04" mask="url(#path-171-inside-85_8_78)"/>
<mask id="path-173-inside-86_8_78" fill="white">
<path d="M431 473H527V569H431V473Z"/>
</mask>
<path d="M527 569V570H528V569H527ZM526 473V569H528V473H526ZM527 568H431V570H527V568Z" fill="#D0D5DD" fill-opacity="0.04" mask="url(#path-173-inside-86_8_78)"/>
<mask id="path-175-inside-87_8_78" fill="white">
<path d="M527 473H623V569H527V473Z"/>
</mask>
<path d="M623 569V570H624V569H623ZM622 473V569H624V473H622ZM623 568H527V570H623V568Z" fill="#D0D5DD" fill-opacity="0.04" mask="url(#path-175-inside-87_8_78)"/>
<mask id="path-177-inside-88_8_78" fill="white">
<path d="M623 473H719V569H623V473Z"/>
</mask>
<path d="M719 569V570H720V569H719ZM718 473V569H720V473H718ZM719 568H623V570H719V568Z" fill="#D0D5DD" fill-opacity="0.04" mask="url(#path-177-inside-88_8_78)"/>
<mask id="path-179-inside-89_8_78" fill="white">
<path d="M719 473H815V569H719V473Z"/>
</mask>
<path d="M815 569V570H816V569H815ZM814 473V569H816V473H814ZM815 568H719V570H815V568Z" fill="#D0D5DD" fill-opacity="0.04" mask="url(#path-179-inside-89_8_78)"/>
<mask id="path-181-inside-90_8_78" fill="white">
<path d="M815 473H911V569H815V473Z"/>
</mask>
<path d="M815 473H911V569H815V473Z" fill="#F2F4F7" fill-opacity="0.02"/>
<path d="M911 569V570H912V569H911ZM910 473V569H912V473H910ZM911 568H815V570H911V568Z" fill="#D0D5DD" fill-opacity="0.04" mask="url(#path-181-inside-90_8_78)"/>
<mask id="path-183-inside-91_8_78" fill="white">
<path d="M911 473H1007V569H911V473Z"/>
</mask>
<path d="M1007 569V570H1008V569H1007ZM1006 473V569H1008V473H1006ZM1007 568H911V570H1007V568Z" fill="#D0D5DD" fill-opacity="0.04" mask="url(#path-183-inside-91_8_78)"/>
<mask id="path-185-inside-92_8_78" fill="white">
<path d="M1007 473H1103V569H1007V473Z"/>
</mask>
<path d="M1103 569V570H1104V569H1103ZM1102 473V569H1104V473H1102ZM1103 568H1007V570H1103V568Z" fill="#D0D5DD" fill-opacity="0.04" mask="url(#path-185-inside-92_8_78)"/>
<mask id="path-187-inside-93_8_78" fill="white">
<path d="M1103 473H1199V569H1103V473Z"/>
</mask>
<path d="M1199 569V570H1200V569H1199ZM1198 473V569H1200V473H1198ZM1199 568H1103V570H1199V568Z" fill="#D0D5DD" fill-opacity="0.04" mask="url(#path-187-inside-93_8_78)"/>
<mask id="path-189-inside-94_8_78" fill="white">
<path d="M1199 473H1295V569H1199V473Z"/>
</mask>
<path d="M1295 569V570H1296V569H1295ZM1294 473V569H1296V473H1294ZM1295 568H1199V570H1295V568Z" fill="#D0D5DD" fill-opacity="0.04" mask="url(#path-189-inside-94_8_78)"/>
<mask id="path-191-inside-95_8_78" fill="white">
<path d="M1295 473H1391V569H1295V473Z"/>
</mask>
<path d="M1391 569V570H1392V569H1391ZM1390 473V569H1392V473H1390ZM1391 568H1295V570H1391V568Z" fill="#D0D5DD" fill-opacity="0.04" mask="url(#path-191-inside-95_8_78)"/>
<mask id="path-193-inside-96_8_78" fill="white">
<path d="M1391 473H1487V569H1391V473Z"/>
</mask>
<path d="M1487 569V570H1488V569H1487ZM1486 473V569H1488V473H1486ZM1487 568H1391V570H1487V568Z" fill="#D0D5DD" fill-opacity="0.04" mask="url(#path-193-inside-96_8_78)"/>
<mask id="path-195-inside-97_8_78" fill="white">
<path d="M-49 569H47V665H-49V569Z"/>
</mask>
<path d="M47 665V666H48V665H47ZM46 569V665H48V569H46ZM47 664H-49V666H47V664Z" fill="#D0D5DD" fill-opacity="0.04" mask="url(#path-195-inside-97_8_78)"/>
<mask id="path-197-inside-98_8_78" fill="white">
<path d="M47 569H143V665H47V569Z"/>
</mask>
<path d="M47 569H143V665H47V569Z" fill="#F2F4F7" fill-opacity="0.02"/>
<path d="M143 665V666H144V665H143ZM142 569V665H144V569H142ZM143 664H47V666H143V664Z" fill="#D0D5DD" fill-opacity="0.04" mask="url(#path-197-inside-98_8_78)"/>
<mask id="path-199-inside-99_8_78" fill="white">
<path d="M143 569H239V665H143V569Z"/>
</mask>
<path d="M239 665V666H240V665H239ZM238 569V665H240V569H238ZM239 664H143V666H239V664Z" fill="#D0D5DD" fill-opacity="0.04" mask="url(#path-199-inside-99_8_78)"/>
<mask id="path-201-inside-100_8_78" fill="white">
<path d="M239 569H335V665H239V569Z"/>
</mask>
<path d="M335 665V666H336V665H335ZM334 569V665H336V569H334ZM335 664H239V666H335V664Z" fill="#D0D5DD" fill-opacity="0.04" mask="url(#path-201-inside-100_8_78)"/>
<mask id="path-203-inside-101_8_78" fill="white">
<path d="M335 569H431V665H335V569Z"/>
</mask>
<path d="M431 665V666H432V665H431ZM430 569V665H432V569H430ZM431 664H335V666H431V664Z" fill="#D0D5DD" fill-opacity="0.04" mask="url(#path-203-inside-101_8_78)"/>
<mask id="path-205-inside-102_8_78" fill="white">
<path d="M431 569H527V665H431V569Z"/>
</mask>
<path d="M527 665V666H528V665H527ZM526 569V665H528V569H526ZM527 664H431V666H527V664Z" fill="#D0D5DD" fill-opacity="0.04" mask="url(#path-205-inside-102_8_78)"/>
<mask id="path-207-inside-103_8_78" fill="white">
<path d="M527 569H623V665H527V569Z"/>
</mask>
<path d="M623 665V666H624V665H623ZM622 569V665H624V569H622ZM623 664H527V666H623V664Z" fill="#D0D5DD" fill-opacity="0.04" mask="url(#path-207-inside-103_8_78)"/>
<mask id="path-209-inside-104_8_78" fill="white">
<path d="M623 569H719V665H623V569Z"/>
</mask>
<path d="M719 665V666H720V665H719ZM718 569V665H720V569H718ZM719 664H623V666H719V664Z" fill="#D0D5DD" fill-opacity="0.04" mask="url(#path-209-inside-104_8_78)"/>
<mask id="path-211-inside-105_8_78" fill="white">
<path d="M719 569H815V665H719V569Z"/>
</mask>
<path d="M815 665V666H816V665H815ZM814 569V665H816V569H814ZM815 664H719V666H815V664Z" fill="#D0D5DD" fill-opacity="0.04" mask="url(#path-211-inside-105_8_78)"/>
<mask id="path-213-inside-106_8_78" fill="white">
<path d="M815 569H911V665H815V569Z"/>
</mask>
<path d="M911 665V666H912V665H911ZM910 569V665H912V569H910ZM911 664H815V666H911V664Z" fill="#D0D5DD" fill-opacity="0.04" mask="url(#path-213-inside-106_8_78)"/>
<mask id="path-215-inside-107_8_78" fill="white">
<path d="M911 569H1007V665H911V569Z"/>
</mask>
<path d="M1007 665V666H1008V665H1007ZM1006 569V665H1008V569H1006ZM1007 664H911V666H1007V664Z" fill="#D0D5DD" fill-opacity="0.04" mask="url(#path-215-inside-107_8_78)"/>
<mask id="path-217-inside-108_8_78" fill="white">
<path d="M1007 569H1103V665H1007V569Z"/>
</mask>
<path d="M1103 665V666H1104V665H1103ZM1102 569V665H1104V569H1102ZM1103 664H1007V666H1103V664Z" fill="#D0D5DD" fill-opacity="0.04" mask="url(#path-217-inside-108_8_78)"/>
<mask id="path-219-inside-109_8_78" fill="white">
<path d="M1103 569H1199V665H1103V569Z"/>
</mask>
<path d="M1199 665V666H1200V665H1199ZM1198 569V665H1200V569H1198ZM1199 664H1103V666H1199V664Z" fill="#D0D5DD" fill-opacity="0.04" mask="url(#path-219-inside-109_8_78)"/>
<mask id="path-221-inside-110_8_78" fill="white">
<path d="M1199 569H1295V665H1199V569Z"/>
</mask>
<path d="M1295 665V666H1296V665H1295ZM1294 569V665H1296V569H1294ZM1295 664H1199V666H1295V664Z" fill="#D0D5DD" fill-opacity="0.04" mask="url(#path-221-inside-110_8_78)"/>
<mask id="path-223-inside-111_8_78" fill="white">
<path d="M1295 569H1391V665H1295V569Z"/>
</mask>
<path d="M1295 569H1391V665H1295V569Z" fill="#F2F4F7" fill-opacity="0.02"/>
<path d="M1391 665V666H1392V665H1391ZM1390 569V665H1392V569H1390ZM1391 664H1295V666H1391V664Z" fill="#D0D5DD" fill-opacity="0.04" mask="url(#path-223-inside-111_8_78)"/>
<mask id="path-225-inside-112_8_78" fill="white">
<path d="M1391 569H1487V665H1391V569Z"/>
</mask>
<path d="M1487 665V666H1488V665H1487ZM1486 569V665H1488V569H1486ZM1487 664H1391V666H1487V664Z" fill="#D0D5DD" fill-opacity="0.04" mask="url(#path-225-inside-112_8_78)"/>
<mask id="path-227-inside-113_8_78" fill="white">
<path d="M-49 665H47V761H-49V665Z"/>
</mask>
<path d="M47 761V762H48V761H47ZM46 665V761H48V665H46ZM47 760H-49V762H47V760Z" fill="#D0D5DD" fill-opacity="0.04" mask="url(#path-227-inside-113_8_78)"/>
<mask id="path-229-inside-114_8_78" fill="white">
<path d="M47 665H143V761H47V665Z"/>
</mask>
<path d="M143 761V762H144V761H143ZM142 665V761H144V665H142ZM143 760H47V762H143V760Z" fill="#D0D5DD" fill-opacity="0.04" mask="url(#path-229-inside-114_8_78)"/>
<mask id="path-231-inside-115_8_78" fill="white">
<path d="M143 665H239V761H143V665Z"/>
</mask>
<path d="M239 761V762H240V761H239ZM238 665V761H240V665H238ZM239 760H143V762H239V760Z" fill="#D0D5DD" fill-opacity="0.04" mask="url(#path-231-inside-115_8_78)"/>
<mask id="path-233-inside-116_8_78" fill="white">
<path d="M239 665H335V761H239V665Z"/>
</mask>
<path d="M335 761V762H336V761H335ZM334 665V761H336V665H334ZM335 760H239V762H335V760Z" fill="#D0D5DD" fill-opacity="0.04" mask="url(#path-233-inside-116_8_78)"/>
<mask id="path-235-inside-117_8_78" fill="white">
<path d="M335 665H431V761H335V665Z"/>
</mask>
<path d="M431 761V762H432V761H431ZM430 665V761H432V665H430ZM431 760H335V762H431V760Z" fill="#D0D5DD" fill-opacity="0.04" mask="url(#path-235-inside-117_8_78)"/>
<mask id="path-237-inside-118_8_78" fill="white">
<path d="M431 665H527V761H431V665Z"/>
</mask>
<path d="M527 761V762H528V761H527ZM526 665V761H528V665H526ZM527 760H431V762H527V760Z" fill="#D0D5DD" fill-opacity="0.04" mask="url(#path-237-inside-118_8_78)"/>
<mask id="path-239-inside-119_8_78" fill="white">
<path d="M527 665H623V761H527V665Z"/>
</mask>
<path d="M527 665H623V761H527V665Z" fill="#F2F4F7" fill-opacity="0.02"/>
<path d="M623 761V762H624V761H623ZM622 665V761H624V665H622ZM623 760H527V762H623V760Z" fill="#D0D5DD" fill-opacity="0.04" mask="url(#path-239-inside-119_8_78)"/>
<mask id="path-241-inside-120_8_78" fill="white">
<path d="M623 665H719V761H623V665Z"/>
</mask>
<path d="M719 761V762H720V761H719ZM718 665V761H720V665H718ZM719 760H623V762H719V760Z" fill="#D0D5DD" fill-opacity="0.04" mask="url(#path-241-inside-120_8_78)"/>
<mask id="path-243-inside-121_8_78" fill="white">
<path d="M719 665H815V761H719V665Z"/>
</mask>
<path d="M815 761V762H816V761H815ZM814 665V761H816V665H814ZM815 760H719V762H815V760Z" fill="#D0D5DD" fill-opacity="0.04" mask="url(#path-243-inside-121_8_78)"/>
<mask id="path-245-inside-122_8_78" fill="white">
<path d="M815 665H911V761H815V665Z"/>
</mask>
<path d="M911 761V762H912V761H911ZM910 665V761H912V665H910ZM911 760H815V762H911V760Z" fill="#D0D5DD" fill-opacity="0.04" mask="url(#path-245-inside-122_8_78)"/>
<mask id="path-247-inside-123_8_78" fill="white">
<path d="M911 665H1007V761H911V665Z"/>
</mask>
<path d="M1007 761V762H1008V761H1007ZM1006 665V761H1008V665H1006ZM1007 760H911V762H1007V760Z" fill="#D0D5DD" fill-opacity="0.04" mask="url(#path-247-inside-123_8_78)"/>
<mask id="path-249-inside-124_8_78" fill="white">
<path d="M1007 665H1103V761H1007V665Z"/>
</mask>
<path d="M1103 761V762H1104V761H1103ZM1102 665V761H1104V665H1102ZM1103 760H1007V762H1103V760Z" fill="#D0D5DD" fill-opacity="0.04" mask="url(#path-249-inside-124_8_78)"/>
<mask id="path-251-inside-125_8_78" fill="white">
<path d="M1103 665H1199V761H1103V665Z"/>
</mask>
<path d="M1103 665H1199V761H1103V665Z" fill="#F2F4F7" fill-opacity="0.02"/>
<path d="M1199 761V762H1200V761H1199ZM1198 665V761H1200V665H1198ZM1199 760H1103V762H1199V760Z" fill="#D0D5DD" fill-opacity="0.04" mask="url(#path-251-inside-125_8_78)"/>
<mask id="path-253-inside-126_8_78" fill="white">
<path d="M1199 665H1295V761H1199V665Z"/>
</mask>
<path d="M1295 761V762H1296V761H1295ZM1294 665V761H1296V665H1294ZM1295 760H1199V762H1295V760Z" fill="#D0D5DD" fill-opacity="0.04" mask="url(#path-253-inside-126_8_78)"/>
<mask id="path-255-inside-127_8_78" fill="white">
<path d="M1295 665H1391V761H1295V665Z"/>
</mask>
<path d="M1391 761V762H1392V761H1391ZM1390 665V761H1392V665H1390ZM1391 760H1295V762H1391V760Z" fill="#D0D5DD" fill-opacity="0.04" mask="url(#path-255-inside-127_8_78)"/>
<mask id="path-257-inside-128_8_78" fill="white">
<path d="M1391 665H1487V761H1391V665Z"/>
</mask>
<path d="M1487 761V762H1488V761H1487ZM1486 665V761H1488V665H1486ZM1487 760H1391V762H1487V760Z" fill="#D0D5DD" fill-opacity="0.04" mask="url(#path-257-inside-128_8_78)"/>
<mask id="path-259-inside-129_8_78" fill="white">
<path d="M-49 761H47V857H-49V761Z"/>
</mask>
<path d="M47 857V858H48V857H47ZM46 761V857H48V761H46ZM47 856H-49V858H47V856Z" fill="#D0D5DD" fill-opacity="0.04" mask="url(#path-259-inside-129_8_78)"/>
<mask id="path-261-inside-130_8_78" fill="white">
<path d="M47 761H143V857H47V761Z"/>
</mask>
<path d="M143 857V858H144V857H143ZM142 761V857H144V761H142ZM143 856H47V858H143V856Z" fill="#D0D5DD" fill-opacity="0.04" mask="url(#path-261-inside-130_8_78)"/>
<mask id="path-263-inside-131_8_78" fill="white">
<path d="M143 761H239V857H143V761Z"/>
</mask>
<path d="M239 857V858H240V857H239ZM238 761V857H240V761H238ZM239 856H143V858H239V856Z" fill="#D0D5DD" fill-opacity="0.04" mask="url(#path-263-inside-131_8_78)"/>
<mask id="path-265-inside-132_8_78" fill="white">
<path d="M239 761H335V857H239V761Z"/>
</mask>
<path d="M239 761H335V857H239V761Z" fill="#F2F4F7" fill-opacity="0.02"/>
<path d="M335 857V858H336V857H335ZM334 761V857H336V761H334ZM335 856H239V858H335V856Z" fill="#D0D5DD" fill-opacity="0.04" mask="url(#path-265-inside-132_8_78)"/>
<mask id="path-267-inside-133_8_78" fill="white">
<path d="M335 761H431V857H335V761Z"/>
</mask>
<path d="M431 857V858H432V857H431ZM430 761V857H432V761H430ZM431 856H335V858H431V856Z" fill="#D0D5DD" fill-opacity="0.04" mask="url(#path-267-inside-133_8_78)"/>
<mask id="path-269-inside-134_8_78" fill="white">
<path d="M431 761H527V857H431V761Z"/>
</mask>
<path d="M527 857V858H528V857H527ZM526 761V857H528V761H526ZM527 856H431V858H527V856Z" fill="#D0D5DD" fill-opacity="0.04" mask="url(#path-269-inside-134_8_78)"/>
<mask id="path-271-inside-135_8_78" fill="white">
<path d="M527 761H623V857H527V761Z"/>
</mask>
<path d="M623 857V858H624V857H623ZM622 761V857H624V761H622ZM623 856H527V858H623V856Z" fill="#D0D5DD" fill-opacity="0.04" mask="url(#path-271-inside-135_8_78)"/>
<mask id="path-273-inside-136_8_78" fill="white">
<path d="M623 761H719V857H623V761Z"/>
</mask>
<path d="M719 857V858H720V857H719ZM718 761V857H720V761H718ZM719 856H623V858H719V856Z" fill="#D0D5DD" fill-opacity="0.04" mask="url(#path-273-inside-136_8_78)"/>
<mask id="path-275-inside-137_8_78" fill="white">
<path d="M719 761H815V857H719V761Z"/>
</mask>
<path d="M815 857V858H816V857H815ZM814 761V857H816V761H814ZM815 856H719V858H815V856Z" fill="#D0D5DD" fill-opacity="0.04" mask="url(#path-275-inside-137_8_78)"/>
<mask id="path-277-inside-138_8_78" fill="white">
<path d="M815 761H911V857H815V761Z"/>
</mask>
<path d="M815 761H911V857H815V761Z" fill="#F2F4F7" fill-opacity="0.02"/>
<path d="M911 857V858H912V857H911ZM910 761V857H912V761H910ZM911 856H815V858H911V856Z" fill="#D0D5DD" fill-opacity="0.04" mask="url(#path-277-inside-138_8_78)"/>
<mask id="path-279-inside-139_8_78" fill="white">
<path d="M911 761H1007V857H911V761Z"/>
</mask>
<path d="M1007 857V858H1008V857H1007ZM1006 761V857H1008V761H1006ZM1007 856H911V858H1007V856Z" fill="#D0D5DD" fill-opacity="0.04" mask="url(#path-279-inside-139_8_78)"/>
<mask id="path-281-inside-140_8_78" fill="white">
<path d="M1007 761H1103V857H1007V761Z"/>
</mask>
<path d="M1103 857V858H1104V857H1103ZM1102 761V857H1104V761H1102ZM1103 856H1007V858H1103V856Z" fill="#D0D5DD" fill-opacity="0.04" mask="url(#path-281-inside-140_8_78)"/>
<mask id="path-283-inside-141_8_78" fill="white">
<path d="M1103 761H1199V857H1103V761Z"/>
</mask>
<path d="M1199 857V858H1200V857H1199ZM1198 761V857H1200V761H1198ZM1199 856H1103V858H1199V856Z" fill="#D0D5DD" fill-opacity="0.04" mask="url(#path-283-inside-141_8_78)"/>
<mask id="path-285-inside-142_8_78" fill="white">
<path d="M1199 761H1295V857H1199V761Z"/>
</mask>
<path d="M1295 857V858H1296V857H1295ZM1294 761V857H1296V761H1294ZM1295 856H1199V858H1295V856Z" fill="#D0D5DD" fill-opacity="0.04" mask="url(#path-285-inside-142_8_78)"/>
<mask id="path-287-inside-143_8_78" fill="white">
<path d="M1295 761H1391V857H1295V761Z"/>
</mask>
<path d="M1391 857V858H1392V857H1391ZM1390 761V857H1392V761H1390ZM1391 856H1295V858H1391V856Z" fill="#D0D5DD" fill-opacity="0.04" mask="url(#path-287-inside-143_8_78)"/>
<mask id="path-289-inside-144_8_78" fill="white">
<path d="M1391 761H1487V857H1391V761Z"/>
</mask>
<path d="M1487 857V858H1488V857H1487ZM1486 761V857H1488V761H1486ZM1487 856H1391V858H1487V856Z" fill="#D0D5DD" fill-opacity="0.04" mask="url(#path-289-inside-144_8_78)"/>
<mask id="path-291-inside-145_8_78" fill="white">
<path d="M-49 857H47V953H-49V857Z"/>
</mask>
<path d="M47 953V954H48V953H47ZM46 857V953H48V857H46ZM47 952H-49V954H47V952Z" fill="#D0D5DD" fill-opacity="0.04" mask="url(#path-291-inside-145_8_78)"/>
<mask id="path-293-inside-146_8_78" fill="white">
<path d="M47 857H143V953H47V857Z"/>
</mask>
<path d="M143 953V954H144V953H143ZM142 857V953H144V857H142ZM143 952H47V954H143V952Z" fill="#D0D5DD" fill-opacity="0.04" mask="url(#path-293-inside-146_8_78)"/>
<mask id="path-295-inside-147_8_78" fill="white">
<path d="M143 857H239V953H143V857Z"/>
</mask>
<path d="M239 953V954H240V953H239ZM238 857V953H240V857H238ZM239 952H143V954H239V952Z" fill="#D0D5DD" fill-opacity="0.04" mask="url(#path-295-inside-147_8_78)"/>
<mask id="path-297-inside-148_8_78" fill="white">
<path d="M239 857H335V953H239V857Z"/>
</mask>
<path d="M335 953V954H336V953H335ZM334 857V953H336V857H334ZM335 952H239V954H335V952Z" fill="#D0D5DD" fill-opacity="0.04" mask="url(#path-297-inside-148_8_78)"/>
<mask id="path-299-inside-149_8_78" fill="white">
<path d="M335 857H431V953H335V857Z"/>
</mask>
<path d="M431 953V954H432V953H431ZM430 857V953H432V857H430ZM431 952H335V954H431V952Z" fill="#D0D5DD" fill-opacity="0.04" mask="url(#path-299-inside-149_8_78)"/>
<mask id="path-301-inside-150_8_78" fill="white">
<path d="M431 857H527V953H431V857Z"/>
</mask>
<path d="M527 953V954H528V953H527ZM526 857V953H528V857H526ZM527 952H431V954H527V952Z" fill="#D0D5DD" fill-opacity="0.04" mask="url(#path-301-inside-150_8_78)"/>
<mask id="path-303-inside-151_8_78" fill="white">
<path d="M527 857H623V953H527V857Z"/>
</mask>
<path d="M623 953V954H624V953H623ZM622 857V953H624V857H622ZM623 952H527V954H623V952Z" fill="#D0D5DD" fill-opacity="0.04" mask="url(#path-303-inside-151_8_78)"/>
<mask id="path-305-inside-152_8_78" fill="white">
<path d="M623 857H719V953H623V857Z"/>
</mask>
<path d="M719 953V954H720V953H719ZM718 857V953H720V857H718ZM719 952H623V954H719V952Z" fill="#D0D5DD" fill-opacity="0.04" mask="url(#path-305-inside-152_8_78)"/>
<mask id="path-307-inside-153_8_78" fill="white">
<path d="M719 857H815V953H719V857Z"/>
</mask>
<path d="M815 953V954H816V953H815ZM814 857V953H816V857H814ZM815 952H719V954H815V952Z" fill="#D0D5DD" fill-opacity="0.04" mask="url(#path-307-inside-153_8_78)"/>
<mask id="path-309-inside-154_8_78" fill="white">
<path d="M815 857H911V953H815V857Z"/>
</mask>
<path d="M911 953V954H912V953H911ZM910 857V953H912V857H910ZM911 952H815V954H911V952Z" fill="#D0D5DD" fill-opacity="0.04" mask="url(#path-309-inside-154_8_78)"/>
<mask id="path-311-inside-155_8_78" fill="white">
<path d="M911 857H1007V953H911V857Z"/>
</mask>
<path d="M1007 953V954H1008V953H1007ZM1006 857V953H1008V857H1006ZM1007 952H911V954H1007V952Z" fill="#D0D5DD" fill-opacity="0.04" mask="url(#path-311-inside-155_8_78)"/>
<mask id="path-313-inside-156_8_78" fill="white">
<path d="M1007 857H1103V953H1007V857Z"/>
</mask>
<path d="M1103 953V954H1104V953H1103ZM1102 857V953H1104V857H1102ZM1103 952H1007V954H1103V952Z" fill="#D0D5DD" fill-opacity="0.04" mask="url(#path-313-inside-156_8_78)"/>
<mask id="path-315-inside-157_8_78" fill="white">
<path d="M1103 857H1199V953H1103V857Z"/>
</mask>
<path d="M1199 953V954H1200V953H1199ZM1198 857V953H1200V857H1198ZM1199 952H1103V954H1199V952Z" fill="#D0D5DD" fill-opacity="0.04" mask="url(#path-315-inside-157_8_78)"/>
<mask id="path-317-inside-158_8_78" fill="white">
<path d="M1199 857H1295V953H1199V857Z"/>
</mask>
<path d="M1295 953V954H1296V953H1295ZM1294 857V953H1296V857H1294ZM1295 952H1199V954H1295V952Z" fill="#D0D5DD" fill-opacity="0.04" mask="url(#path-317-inside-158_8_78)"/>
<mask id="path-319-inside-159_8_78" fill="white">
<path d="M1295 857H1391V953H1295V857Z"/>
</mask>
<path d="M1391 953V954H1392V953H1391ZM1390 857V953H1392V857H1390ZM1391 952H1295V954H1391V952Z" fill="#D0D5DD" fill-opacity="0.04" mask="url(#path-319-inside-159_8_78)"/>
<mask id="path-321-inside-160_8_78" fill="white">
<path d="M1391 857H1487V953H1391V857Z"/>
</mask>
<path d="M1391 857H1487V953H1391V857Z" fill="#F2F4F7" fill-opacity="0.02"/>
<path d="M1487 953V954H1488V953H1487ZM1486 857V953H1488V857H1486ZM1487 952H1391V954H1487V952Z" fill="#D0D5DD" fill-opacity="0.04" mask="url(#path-321-inside-160_8_78)"/>
<mask id="path-323-inside-161_8_78" fill="white">
<path d="M-49 953H47V1049H-49V953Z"/>
</mask>
<path d="M47 1049V1050H48V1049H47ZM46 953V1049H48V953H46ZM47 1048H-49V1050H47V1048Z" fill="#D0D5DD" fill-opacity="0.04" mask="url(#path-323-inside-161_8_78)"/>
<mask id="path-325-inside-162_8_78" fill="white">
<path d="M47 953H143V1049H47V953Z"/>
</mask>
<path d="M143 1049V1050H144V1049H143ZM142 953V1049H144V953H142ZM143 1048H47V1050H143V1048Z" fill="#D0D5DD" fill-opacity="0.04" mask="url(#path-325-inside-162_8_78)"/>
<mask id="path-327-inside-163_8_78" fill="white">
<path d="M143 953H239V1049H143V953Z"/>
</mask>
<path d="M239 1049V1050H240V1049H239ZM238 953V1049H240V953H238ZM239 1048H143V1050H239V1048Z" fill="#D0D5DD" fill-opacity="0.04" mask="url(#path-327-inside-163_8_78)"/>
<mask id="path-329-inside-164_8_78" fill="white">
<path d="M239 953H335V1049H239V953Z"/>
</mask>
<path d="M335 1049V1050H336V1049H335ZM334 953V1049H336V953H334ZM335 1048H239V1050H335V1048Z" fill="#D0D5DD" fill-opacity="0.04" mask="url(#path-329-inside-164_8_78)"/>
<mask id="path-331-inside-165_8_78" fill="white">
<path d="M335 953H431V1049H335V953Z"/>
</mask>
<path d="M335 953H431V1049H335V953Z" fill="#F2F4F7" fill-opacity="0.02"/>
<path d="M431 1049V1050H432V1049H431ZM430 953V1049H432V953H430ZM431 1048H335V1050H431V1048Z" fill="#D0D5DD" fill-opacity="0.04" mask="url(#path-331-inside-165_8_78)"/>
<mask id="path-333-inside-166_8_78" fill="white">
<path d="M431 953H527V1049H431V953Z"/>
</mask>
<path d="M527 1049V1050H528V1049H527ZM526 953V1049H528V953H526ZM527 1048H431V1050H527V1048Z" fill="#D0D5DD" fill-opacity="0.04" mask="url(#path-333-inside-166_8_78)"/>
<mask id="path-335-inside-167_8_78" fill="white">
<path d="M527 953H623V1049H527V953Z"/>
</mask>
<path d="M623 1049V1050H624V1049H623ZM622 953V1049H624V953H622ZM623 1048H527V1050H623V1048Z" fill="#D0D5DD" fill-opacity="0.04" mask="url(#path-335-inside-167_8_78)"/>
<mask id="path-337-inside-168_8_78" fill="white">
<path d="M623 953H719V1049H623V953Z"/>
</mask>
<path d="M719 1049V1050H720V1049H719ZM718 953V1049H720V953H718ZM719 1048H623V1050H719V1048Z" fill="#D0D5DD" fill-opacity="0.04" mask="url(#path-337-inside-168_8_78)"/>
<mask id="path-339-inside-169_8_78" fill="white">
<path d="M719 953H815V1049H719V953Z"/>
</mask>
<path d="M719 953H815V1049H719V953Z" fill="#F2F4F7" fill-opacity="0.02"/>
<path d="M815 1049V1050H816V1049H815ZM814 953V1049H816V953H814ZM815 1048H719V1050H815V1048Z" fill="#D0D5DD" fill-opacity="0.04" mask="url(#path-339-inside-169_8_78)"/>
<mask id="path-341-inside-170_8_78" fill="white">
<path d="M815 953H911V1049H815V953Z"/>
</mask>
<path d="M911 1049V1050H912V1049H911ZM910 953V1049H912V953H910ZM911 1048H815V1050H911V1048Z" fill="#D0D5DD" fill-opacity="0.04" mask="url(#path-341-inside-170_8_78)"/>
<mask id="path-343-inside-171_8_78" fill="white">
<path d="M911 953H1007V1049H911V953Z"/>
</mask>
<path d="M1007 1049V1050H1008V1049H1007ZM1006 953V1049H1008V953H1006ZM1007 1048H911V1050H1007V1048Z" fill="#D0D5DD" fill-opacity="0.04" mask="url(#path-343-inside-171_8_78)"/>
<mask id="path-345-inside-172_8_78" fill="white">
<path d="M1007 953H1103V1049H1007V953Z"/>
</mask>
<path d="M1103 1049V1050H1104V1049H1103ZM1102 953V1049H1104V953H1102ZM1103 1048H1007V1050H1103V1048Z" fill="#D0D5DD" fill-opacity="0.04" mask="url(#path-345-inside-172_8_78)"/>
<mask id="path-347-inside-173_8_78" fill="white">
<path d="M1103 953H1199V1049H1103V953Z"/>
</mask>
<path d="M1199 1049V1050H1200V1049H1199ZM1198 953V1049H1200V953H1198ZM1199 1048H1103V1050H1199V1048Z" fill="#D0D5DD" fill-opacity="0.04" mask="url(#path-347-inside-173_8_78)"/>
<mask id="path-349-inside-174_8_78" fill="white">
<path d="M1199 953H1295V1049H1199V953Z"/>
</mask>
<path d="M1295 1049V1050H1296V1049H1295ZM1294 953V1049H1296V953H1294ZM1295 1048H1199V1050H1295V1048Z" fill="#D0D5DD" fill-opacity="0.04" mask="url(#path-349-inside-174_8_78)"/>
<mask id="path-351-inside-175_8_78" fill="white">
<path d="M1295 953H1391V1049H1295V953Z"/>
</mask>
<path d="M1391 1049V1050H1392V1049H1391ZM1390 953V1049H1392V953H1390ZM1391 1048H1295V1050H1391V1048Z" fill="#D0D5DD" fill-opacity="0.04" mask="url(#path-351-inside-175_8_78)"/>
<mask id="path-353-inside-176_8_78" fill="white">
<path d="M1391 953H1487V1049H1391V953Z"/>
</mask>
<path d="M1487 1049V1050H1488V1049H1487ZM1486 953V1049H1488V953H1486ZM1487 1048H1391V1050H1487V1048Z" fill="#D0D5DD" fill-opacity="0.04" mask="url(#path-353-inside-176_8_78)"/>
</g>
<rect x="-240.5" y="-6.5" width="1919" height="1439" stroke="#D0D5DD" stroke-opacity="0.04"/>
</g>
</g>
<defs>
<radialGradient id="paint0_radial_8_78" cx="0" cy="0" r="1" gradientUnits="userSpaceOnUse" gradientTransform="translate(720 -0.000142694) rotate(90) scale(1197 751.588)">
<stop/>
<stop offset="0.953125" stop-opacity="0"/>
</radialGradient>
<clipPath id="clip0_8_78">
<rect width="1437" height="983" fill="white" transform="translate(0 -7)"/>
</clipPath>
<clipPath id="clip1_8_78">
<rect x="-241" y="-7" width="1920" height="1440" fill="white"/>
</clipPath>
</defs>
</svg>
