<svg width="226" height="164" viewBox="0 0 226 164" fill="none" xmlns="http://www.w3.org/2000/svg">
<path d="M19.051 158.288H17.8672V154.468H16.5098V153.655H16.7308C17.3148 153.655 17.7094 153.521 17.9698 153H19.051V158.288ZM24.3102 158.288H19.6145V157.53C19.6145 156.599 20.017 156.118 21.1297 155.747L22.4871 155.305C22.9607 155.139 23.1343 154.981 23.1343 154.634C23.1343 154.231 22.9133 154.003 22.0452 154.003C21.0745 154.003 20.7825 154.295 20.7825 154.879V154.981H19.6224V154.879C19.6224 153.853 20.3248 152.921 22.0847 152.921C23.6788 152.921 24.326 153.647 24.326 154.65C24.326 155.589 23.7104 156.054 22.7713 156.315L21.619 156.631C21.1061 156.788 20.8614 156.938 20.8614 157.357L22.2425 157.222H24.3102V158.288ZM26.0771 158.288H24.8933V153H26.0771V155.099H28.8392V153H30.023V158.288H28.8392V156.165H26.0771V158.288Z" fill="#FEFEFE"/>
<path d="M66.2667 158.288H65.083V154.468H63.7256V153.655H63.9465C64.5305 153.655 64.9251 153.521 65.1856 153H66.2667V158.288ZM69.5766 158.288H67.0276V153H69.5766C71.2734 153 72.3467 153.987 72.3467 155.644C72.3467 157.301 71.2734 158.288 69.5766 158.288ZM69.5766 154.066H68.2113V157.222H69.5766C70.6499 157.222 71.084 156.915 71.084 155.644C71.084 154.373 70.6499 154.066 69.5766 154.066Z" fill="#FEFEFE"/>
<rect x="96.9834" y="147.315" width="31.6399" height="15.7837" rx="7.89187" fill="#F0FF9D"/>
<path d="M109.611 158.288H108.427V154.468H107.069V153.655H107.29C107.874 153.655 108.269 153.521 108.529 153H109.611V158.288ZM113.086 158.288H111.326L110.079 153H111.405L112.044 155.999L112.226 157.159H112.313L112.557 155.999L113.441 153H115.201L116.077 155.999L116.322 157.159H116.409L116.59 155.999L117.229 153H118.524L117.269 158.288H115.509L114.72 155.644L114.349 154.121H114.262L113.891 155.644L113.086 158.288Z" fill="black"/>
<path d="M154.963 158.288H153.779V154.468H152.422V153.655H152.643C153.227 153.655 153.621 153.521 153.882 153H154.963V158.288ZM156.844 158.288H155.661V153H157.263L158.502 155.605L158.999 156.844H159.086L159.567 155.605L160.767 153H162.377V158.288H161.193V155.605L161.232 154.776H161.145L160.838 155.605L159.733 157.972H158.297L157.192 155.605L156.884 154.776H156.797L156.844 155.605V158.288Z" fill="#FEFEFE"/>
<path d="M200.468 158.288H199.285V154.468H197.927V153.655H198.148C198.732 153.655 199.127 153.521 199.387 153H200.468V158.288ZM204.299 158.288H203.107V156.536L200.764 153H202.224L203.234 154.547L203.676 155.257H203.762L204.204 154.547L205.215 153H206.682L204.299 156.544V158.288Z" fill="#FEFEFE"/>
<path opacity="0.4" d="M46.0842 110.486V5.26122" stroke="#F0FF9D" stroke-width="0.657656" stroke-linecap="round" stroke-linejoin="round" stroke-dasharray="3.95"/>
<path d="M40.3477 131.009H39.694V124.84H40.5871L42.6587 128.863L43.2019 130.005H43.2479L43.7819 128.863L45.8444 124.84H46.7467V131.009H46.093V126.663L46.1114 125.834H46.0561L45.6694 126.663L43.6162 130.64H42.8244L40.7712 126.663L40.3753 125.834H40.3293L40.3477 126.663V131.009ZM50.2327 131.101C48.7504 131.101 47.7652 130.116 47.7652 128.734C47.7652 127.353 48.7504 126.368 50.2327 126.368C51.7243 126.368 52.7094 127.353 52.7094 128.734C52.7094 130.116 51.7243 131.101 50.2327 131.101ZM50.2327 130.511C51.4849 130.511 52.0649 129.839 52.0649 128.734C52.0649 127.639 51.4849 126.957 50.2327 126.957C48.9805 126.957 48.4097 127.639 48.4097 128.734C48.4097 129.839 48.9805 130.511 50.2327 130.511Z" fill="#EFEFEF"/>
<path opacity="0.4" d="M73.5973 110.486V5.26123" stroke="#F0FF9D" stroke-width="0.657656" stroke-linecap="round" stroke-linejoin="round" stroke-dasharray="3.95"/>
<path d="M71.0568 131.009H70.4031V125.438H67.8619V124.84H73.5887V125.438H71.0568V131.009ZM76.3086 131.101C75.0104 131.101 74.3751 130.198 74.3751 129.121V126.46H75.0288V129.02C75.0288 129.968 75.4892 130.511 76.5388 130.511C77.6529 130.511 78.2329 129.839 78.2329 128.67V126.46H78.8867V131.009H78.2974V129.591H78.2514C78.0948 130.364 77.4411 131.101 76.3086 131.101Z" fill="#EFEFEF"/>
<path opacity="0.4" d="M101.11 110.486V5.26123" stroke="#F0FF9D" stroke-width="0.657656" stroke-linecap="round" stroke-linejoin="round" stroke-dasharray="3.95"/>
<path d="M96.5418 131.009H95.5659L93.7797 124.84H94.507L95.7316 129.094L96.0539 130.355H96.1091L96.4774 129.094L97.9137 124.84H98.8344L100.418 129.094L100.832 130.355H100.878L101.164 129.094L102.241 124.84H102.959L101.366 131.009H100.39L98.8897 126.994L98.4017 125.558H98.3372L97.9045 126.994L96.5418 131.009ZM105.999 131.101C104.535 131.101 103.605 130.18 103.605 128.734C103.605 127.353 104.526 126.368 105.99 126.368C107.325 126.368 108.273 127.142 108.273 128.495C108.273 128.661 108.255 128.799 108.227 128.919H104.222C104.259 129.941 104.783 130.557 105.99 130.557C107.058 130.557 107.555 130.162 107.555 129.499V129.434H108.209V129.499C108.209 130.447 107.269 131.101 105.999 131.101ZM105.98 126.911C104.802 126.911 104.268 127.519 104.222 128.513H107.656C107.656 128.467 107.656 128.421 107.656 128.375C107.656 127.418 107.048 126.911 105.98 126.911Z" fill="#EFEFEF"/>
<path opacity="0.4" d="M128.623 110.486V5.26123" stroke="#F0FF9D" stroke-width="0.657656" stroke-linecap="round" stroke-linejoin="round" stroke-dasharray="3.95"/>
<path d="M126.083 131.009H125.429V125.438H122.888V124.84H128.614V125.438H126.083V131.009ZM130.082 131.009H129.429V124.84H130.082V127.851H130.128C130.276 127.086 130.865 126.368 132.025 126.368C133.296 126.368 133.931 127.215 133.931 128.366V131.009H133.277V128.449C133.277 127.409 132.789 126.967 131.767 126.967C130.552 126.967 130.082 127.74 130.082 128.873V131.009Z" fill="#EFEFEF"/>
<path opacity="0.4" d="M156.136 110.486V5.26123" stroke="#F0FF9D" stroke-width="0.657656" stroke-linecap="round" stroke-linejoin="round" stroke-dasharray="3.95"/>
<path d="M152.261 131.009H151.607V124.84H156.229V125.438H152.261V127.795H156.091V128.385H152.261V131.009ZM157.919 131.009H157.265V126.46H157.854V127.703H157.9C158.038 126.976 158.554 126.368 159.502 126.368C160.552 126.368 161.012 127.142 161.012 127.989V128.44H160.359V128.09C160.359 127.317 160.036 126.939 159.245 126.939C158.324 126.939 157.919 127.519 157.919 128.541V131.009Z" fill="#EFEFEF"/>
<path opacity="0.4" d="M183.649 110.486V5.26123" stroke="#F0FF9D" stroke-width="0.657656" stroke-linecap="round" stroke-linejoin="round" stroke-dasharray="3.95"/>
<path d="M181.114 131.101C179.3 131.101 178.453 130.235 178.453 129.057V129.001H179.116V129.121C179.116 130.005 179.668 130.484 181.114 130.484C182.347 130.484 182.909 130.143 182.909 129.443C182.909 128.753 182.495 128.504 181.592 128.32L180.285 128.072C179.281 127.878 178.48 127.455 178.48 126.433C178.48 125.595 179.198 124.748 180.966 124.748C182.706 124.748 183.48 125.668 183.48 126.792V126.847H182.817V126.736C182.817 125.843 182.264 125.365 180.92 125.365C179.696 125.365 179.143 125.714 179.143 126.387C179.143 127.086 179.548 127.298 180.46 127.491L181.758 127.749C182.863 127.961 183.572 128.431 183.572 129.388C183.572 130.272 182.826 131.101 181.114 131.101ZM185.846 131.101C184.953 131.101 184.345 130.677 184.345 129.941C184.345 129.195 184.962 128.873 185.809 128.78L187.973 128.541V128.191C187.973 127.307 187.586 126.957 186.592 126.957C185.616 126.957 185.1 127.307 185.1 128.108V128.145H184.447V128.108C184.447 127.151 185.238 126.368 186.638 126.368C188.019 126.368 188.608 127.16 188.608 128.164V131.009H188.019V129.784H187.973C187.706 130.622 186.905 131.101 185.846 131.101ZM184.999 129.895C184.999 130.355 185.303 130.594 185.993 130.594C187.098 130.594 187.973 130.106 187.973 129.011V128.974L186.012 129.195C185.33 129.259 184.999 129.425 184.999 129.895Z" fill="#EFEFEF"/>
<path opacity="0.4" d="M211.162 110.486V5.26123" stroke="#F0FF9D" stroke-width="0.657656" stroke-linecap="round" stroke-linejoin="round" stroke-dasharray="3.95"/>
<path d="M208.384 131.101C206.57 131.101 205.723 130.235 205.723 129.057V129.001H206.386V129.121C206.386 130.005 206.938 130.484 208.384 130.484C209.618 130.484 210.179 130.143 210.179 129.443C210.179 128.753 209.765 128.504 208.863 128.32L207.555 128.072C206.552 127.878 205.751 127.455 205.751 126.433C205.751 125.595 206.469 124.748 208.237 124.748C209.977 124.748 210.75 125.668 210.75 126.792V126.847H210.087V126.736C210.087 125.843 209.535 125.365 208.191 125.365C206.966 125.365 206.414 125.714 206.414 126.387C206.414 127.086 206.819 127.298 207.73 127.491L209.028 127.749C210.133 127.961 210.842 128.431 210.842 129.388C210.842 130.272 210.096 131.101 208.384 131.101ZM213.761 131.101C212.463 131.101 211.827 130.198 211.827 129.121V126.46H212.481V129.02C212.481 129.968 212.941 130.511 213.991 130.511C215.105 130.511 215.685 129.839 215.685 128.67V126.46H216.339V131.009H215.75V129.591H215.704C215.547 130.364 214.893 131.101 213.761 131.101Z" fill="#EFEFEF"/>
<path d="M3.11203 10.9207H2.50435V10.0737C0.994375 9.94476 0.285423 9.12532 0.285423 8.04808V7.99284H0.948339V8.11253C0.948339 8.99642 1.50077 9.47519 2.9463 9.47519C4.18006 9.47519 4.7417 9.13453 4.7417 8.43478C4.7417 7.74424 4.32737 7.49565 3.42507 7.3115L2.11765 7.06291C1.11407 6.86956 0.313044 6.44603 0.313044 5.42403C0.313044 4.63222 0.948339 3.8404 2.50435 3.74833V2.91047H3.11203V3.74833C4.63121 3.85881 5.31254 4.73349 5.31254 5.78311V5.83836H4.64962V5.72787C4.64962 4.83477 4.09719 4.356 2.75295 4.356C1.52839 4.356 0.975961 4.70587 0.975961 5.378C0.975961 6.07774 1.38108 6.28951 2.29259 6.48286L3.5908 6.74066C4.69566 6.95242 5.40461 7.42199 5.40461 8.37954C5.40461 9.2358 4.70487 10.0368 3.11203 10.0921V10.9207ZM11.1591 10H6.27007V9.54885C6.27007 8.36112 6.70281 7.78107 7.94577 7.32992L9.32685 6.84194C10.2199 6.51048 10.5146 6.20664 10.5146 5.55293C10.5146 4.7427 9.95294 4.356 8.78363 4.356C7.44859 4.356 6.89616 4.8716 6.89616 5.79232V5.90281H6.24245V5.81994C6.24245 4.72429 6.99743 3.73912 8.80204 3.73912C10.4593 3.73912 11.1775 4.55856 11.1775 5.55293C11.1775 6.50127 10.5882 7.03529 9.50179 7.40358L8.2404 7.82711C7.22761 8.18619 6.94219 8.5913 6.94219 9.45678L8.32327 9.40153H11.1591V10ZM14.6317 10.0921C12.9468 10.0921 11.9064 9.50281 11.9064 8.32429C11.9064 7.5601 12.4404 6.97084 13.4532 6.76828V6.70383C12.5601 6.58414 12.0721 6.04091 12.0721 5.34117C12.0721 4.39283 12.9468 3.73912 14.6317 3.73912C16.3258 3.73912 17.1913 4.39283 17.1913 5.34117C17.1913 6.04091 16.7033 6.58414 15.8102 6.70383V6.76828C16.8414 6.97084 17.357 7.5601 17.357 8.32429C17.357 9.50281 16.3074 10.0921 14.6317 10.0921ZM14.6317 6.54731C15.9391 6.54731 16.5376 6.18823 16.5376 5.46086C16.5376 4.77953 16.0772 4.36521 14.6317 4.36521C13.1954 4.36521 12.7258 4.77953 12.7258 5.46086C12.7258 6.18823 13.3243 6.54731 14.6317 6.54731ZM14.6317 9.46598C16.0956 9.46598 16.6941 9.0977 16.6941 8.22301C16.6941 7.42199 16.0772 7.01687 14.6317 7.01687C13.1861 7.01687 12.5693 7.42199 12.5693 8.22301C12.5693 9.0977 13.1585 9.46598 14.6317 9.46598ZM20.9424 10.0921C19.1838 10.0921 18.079 8.90435 18.079 6.9156C18.079 4.93605 19.1838 3.73912 20.9424 3.73912C22.6917 3.73912 23.7966 4.93605 23.7966 6.9156C23.7966 8.90435 22.6917 10.0921 20.9424 10.0921ZM20.9424 9.46598C22.3695 9.46598 23.1061 8.63734 23.1061 6.9156C23.1061 5.19385 22.3695 4.36521 20.9424 4.36521C19.5061 4.36521 18.7695 5.19385 18.7695 6.9156C18.7695 8.63734 19.5061 9.46598 20.9424 9.46598Z" fill="#EFEFEF"/>
<path d="M3.11203 37.2269H2.50435V36.3799C0.994375 36.251 0.285423 35.4315 0.285423 34.3543V34.2991H0.948339V34.4188C0.948339 35.3026 1.50077 35.7814 2.9463 35.7814C4.18006 35.7814 4.7417 35.4408 4.7417 34.741C4.7417 34.0505 4.32737 33.8019 3.42507 33.6177L2.11765 33.3691C1.11407 33.1758 0.313044 32.7523 0.313044 31.7303C0.313044 30.9384 0.948339 30.1466 2.50435 30.0546V29.2167H3.11203V30.0546C4.63121 30.165 5.31254 31.0397 5.31254 32.0893V32.1446H4.64962V32.0341C4.64962 31.141 4.09719 30.6622 2.75295 30.6622C1.52839 30.6622 0.975961 31.0121 0.975961 31.6842C0.975961 32.384 1.38108 32.5957 2.29259 32.7891L3.5908 33.0469C4.69566 33.2587 5.40461 33.7282 5.40461 34.6858C5.40461 35.542 4.70487 36.3431 3.11203 36.3983V37.2269ZM11.1591 36.3062H6.27007V35.8551C6.27007 34.6674 6.70281 34.0873 7.94577 33.6361L9.32685 33.1482C10.2199 32.8167 10.5146 32.5129 10.5146 31.8592C10.5146 31.0489 9.95294 30.6622 8.78363 30.6622C7.44859 30.6622 6.89616 31.1778 6.89616 32.0985V32.209H6.24245V32.1262C6.24245 31.0305 6.99743 30.0453 8.80204 30.0453C10.4593 30.0453 11.1775 30.8648 11.1775 31.8592C11.1775 32.8075 10.5882 33.3415 9.50179 33.7098L8.2404 34.1333C7.22761 34.4924 6.94219 34.8975 6.94219 35.763L8.32327 35.7078H11.1591V36.3062ZM14.8895 36.3983C12.9099 36.3983 12.0537 35.4592 12.0537 33.1666C12.0537 31.3159 12.9468 30.0453 14.8711 30.0453C16.2798 30.0453 17.311 30.7727 17.311 32.0157V32.0801H16.602V32.0157C16.602 31.2515 16.1509 30.6714 14.8711 30.6714C13.3058 30.6714 12.735 31.5001 12.735 33.139V33.6914H12.7994C13.0112 33.0009 13.8583 32.4852 15.0828 32.4852C16.5928 32.4852 17.4767 33.2218 17.4767 34.4188C17.4767 35.6249 16.5376 36.3983 14.8895 36.3983ZM14.8711 35.7722C16.1969 35.7722 16.8046 35.3119 16.8046 34.3727C16.8046 33.4612 16.2153 32.9824 14.8803 32.9824C13.6281 32.9824 12.8639 33.4796 12.8639 34.3175C12.8639 35.275 13.5821 35.7722 14.8711 35.7722ZM21.2211 36.3983C19.4625 36.3983 18.3577 35.2106 18.3577 33.2218C18.3577 31.2423 19.4625 30.0453 21.2211 30.0453C22.9705 30.0453 24.0753 31.2423 24.0753 33.2218C24.0753 35.2106 22.9705 36.3983 21.2211 36.3983ZM21.2211 35.7722C22.6482 35.7722 23.3848 34.9436 23.3848 33.2218C23.3848 31.5001 22.6482 30.6714 21.2211 30.6714C19.7848 30.6714 19.0482 31.5001 19.0482 33.2218C19.0482 34.9436 19.7848 35.7722 21.2211 35.7722Z" fill="#EFEFEF"/>
<path d="M3.11203 63.5332H2.50435V62.6861C0.994375 62.5572 0.285423 61.7378 0.285423 60.6605V60.6053H0.948339V60.725C0.948339 61.6089 1.50077 62.0876 2.9463 62.0876C4.18006 62.0876 4.7417 61.747 4.7417 61.0472C4.7417 60.3567 4.32737 60.1081 3.42507 59.924L2.11765 59.6754C1.11407 59.482 0.313044 59.0585 0.313044 58.0365C0.313044 57.2447 0.948339 56.4529 2.50435 56.3608V55.5229H3.11203V56.3608C4.63121 56.4713 5.31254 57.346 5.31254 58.3956V58.4508H4.64962V58.3403C4.64962 57.4472 4.09719 56.9685 2.75295 56.9685C1.52839 56.9685 0.975961 57.3183 0.975961 57.9905C0.975961 58.6902 1.38108 58.902 2.29259 59.0953L3.5908 59.3531C4.69566 59.5649 5.40461 60.0344 5.40461 60.992C5.40461 61.8483 4.70487 62.6493 3.11203 62.7045V63.5332ZM11.1591 62.6125H6.27007V62.1613C6.27007 60.9736 6.70281 60.3935 7.94577 59.9424L9.32685 59.4544C10.2199 59.1229 10.5146 58.8191 10.5146 58.1654C10.5146 57.3552 9.95294 56.9685 8.78363 56.9685C7.44859 56.9685 6.89616 57.4841 6.89616 58.4048V58.5153H6.24245V58.4324C6.24245 57.3367 6.99743 56.3516 8.80204 56.3516C10.4593 56.3516 11.1775 57.171 11.1775 58.1654C11.1775 59.1137 10.5882 59.6477 9.50179 60.016L8.2404 60.4396C7.22761 60.7986 6.94219 61.2038 6.94219 62.0692L8.32327 62.014H11.1591V62.6125ZM16.5099 62.6125H15.847V61.305H11.8971V60.8263L15.7365 56.4436H16.5099V60.7066H17.6608V61.305H16.5099V62.6125ZM12.7994 60.7066H15.847V57.2355H15.801L12.7994 60.6513V60.7066ZM21.2391 62.7045C19.4805 62.7045 18.3757 61.5168 18.3757 59.5281C18.3757 57.5485 19.4805 56.3516 21.2391 56.3516C22.9885 56.3516 24.0933 57.5485 24.0933 59.5281C24.0933 61.5168 22.9885 62.7045 21.2391 62.7045ZM21.2391 62.0784C22.6662 62.0784 23.4028 61.2498 23.4028 59.5281C23.4028 57.8063 22.6662 56.9777 21.2391 56.9777C19.8028 56.9777 19.0662 57.8063 19.0662 59.5281C19.0662 61.2498 19.8028 62.0784 21.2391 62.0784Z" fill="#EFEFEF"/>
<path d="M3.11203 89.8394H2.50435V88.9923C0.994375 88.8634 0.285423 88.044 0.285423 86.9667V86.9115H0.948339V87.0312C0.948339 87.9151 1.50077 88.3939 2.9463 88.3939C4.18006 88.3939 4.7417 88.0532 4.7417 87.3535C4.7417 86.6629 4.32737 86.4143 3.42507 86.2302L2.11765 85.9816C1.11407 85.7882 0.313044 85.3647 0.313044 84.3427C0.313044 83.5509 0.948339 82.7591 2.50435 82.667V81.8291H3.11203V82.667C4.63121 82.7775 5.31254 83.6522 5.31254 84.7018V84.757H4.64962V84.6465C4.64962 83.7534 4.09719 83.2747 2.75295 83.2747C1.52839 83.2747 0.975961 83.6245 0.975961 84.2967C0.975961 84.9964 1.38108 85.2082 2.29259 85.4015L3.5908 85.6593C4.69566 85.8711 5.40461 86.3407 5.40461 87.2982C5.40461 88.1545 4.70487 88.9555 3.11203 89.0107V89.8394ZM11.1591 88.9187H6.27007V88.4675C6.27007 87.2798 6.70281 86.6997 7.94577 86.2486L9.32685 85.7606C10.2199 85.4292 10.5146 85.1253 10.5146 84.4716C10.5146 83.6614 9.95294 83.2747 8.78363 83.2747C7.44859 83.2747 6.89616 83.7903 6.89616 84.711V84.8215H6.24245V84.7386C6.24245 83.643 6.99743 82.6578 8.80204 82.6578C10.4593 82.6578 11.1775 83.4772 11.1775 84.4716C11.1775 85.4199 10.5882 85.954 9.50179 86.3222L8.2404 86.7458C7.22761 87.1049 6.94219 87.51 6.94219 88.3754L8.32327 88.3202H11.1591V88.9187ZM16.9611 88.9187H12.0721V88.4675C12.0721 87.2798 12.5048 86.6997 13.7478 86.2486L15.1289 85.7606C16.022 85.4292 16.3166 85.1253 16.3166 84.4716C16.3166 83.6614 15.755 83.2747 14.5856 83.2747C13.2506 83.2747 12.6982 83.7903 12.6982 84.711V84.8215H12.0445V84.7386C12.0445 83.643 12.7994 82.6578 14.6041 82.6578C16.2613 82.6578 16.9795 83.4772 16.9795 84.4716C16.9795 85.4199 16.3902 85.954 15.3038 86.3222L14.0424 86.7458C13.0296 87.1049 12.7442 87.51 12.7442 88.3754L14.1253 88.3202H16.9611V88.9187ZM20.6547 89.0107C18.8961 89.0107 17.7912 87.823 17.7912 85.8343C17.7912 83.8547 18.8961 82.6578 20.6547 82.6578C22.404 82.6578 23.5089 83.8547 23.5089 85.8343C23.5089 87.823 22.404 89.0107 20.6547 89.0107ZM20.6547 88.3847C22.0818 88.3847 22.8183 87.556 22.8183 85.8343C22.8183 84.1125 22.0818 83.2839 20.6547 83.2839C19.2183 83.2839 18.4818 84.1125 18.4818 85.8343C18.4818 87.556 19.2183 88.3847 20.6547 88.3847Z" fill="#EFEFEF"/>
<path d="M3.11203 116.146H2.50435V115.299C0.994375 115.17 0.285423 114.35 0.285423 113.273V113.218H0.948339V113.337C0.948339 114.221 1.50077 114.7 2.9463 114.7C4.18006 114.7 4.7417 114.359 4.7417 113.66C4.7417 112.969 4.32737 112.721 3.42507 112.536L2.11765 112.288C1.11407 112.094 0.313044 111.671 0.313044 110.649C0.313044 109.857 0.948339 109.065 2.50435 108.973V108.135H3.11203V108.973C4.63121 109.084 5.31254 109.958 5.31254 111.008V111.063H4.64962V110.953C4.64962 110.06 4.09719 109.581 2.75295 109.581C1.52839 109.581 0.975961 109.931 0.975961 110.603C0.975961 111.303 1.38108 111.514 2.29259 111.708L3.5908 111.966C4.69566 112.177 5.40461 112.647 5.40461 113.604C5.40461 114.461 4.70487 115.262 3.11203 115.317V116.146ZM11.1591 115.225H6.27007V114.774C6.27007 113.586 6.70281 113.006 7.94577 112.555L9.32685 112.067C10.2199 111.735 10.5146 111.432 10.5146 110.778C10.5146 109.968 9.95294 109.581 8.78363 109.581C7.44859 109.581 6.89616 110.097 6.89616 111.017V111.128H6.24245V111.045C6.24245 109.949 6.99743 108.964 8.80204 108.964C10.4593 108.964 11.1775 109.783 11.1775 110.778C11.1775 111.726 10.5882 112.26 9.50179 112.628L8.2404 113.052C7.22761 113.411 6.94219 113.816 6.94219 114.682L8.32327 114.626H11.1591V115.225ZM14.8526 115.317C13.0941 115.317 11.9892 114.129 11.9892 112.141C11.9892 110.161 13.0941 108.964 14.8526 108.964C16.602 108.964 17.7069 110.161 17.7069 112.141C17.7069 114.129 16.602 115.317 14.8526 115.317ZM14.8526 114.691C16.2798 114.691 17.0163 113.862 17.0163 112.141C17.0163 110.419 16.2798 109.59 14.8526 109.59C13.4163 109.59 12.6798 110.419 12.6798 112.141C12.6798 113.862 13.4163 114.691 14.8526 114.691ZM21.383 115.317C19.6244 115.317 18.5195 114.129 18.5195 112.141C18.5195 110.161 19.6244 108.964 21.383 108.964C23.1323 108.964 24.2372 110.161 24.2372 112.141C24.2372 114.129 23.1323 115.317 21.383 115.317ZM21.383 114.691C22.8101 114.691 23.5466 113.862 23.5466 112.141C23.5466 110.419 22.8101 109.59 21.383 109.59C19.9466 109.59 19.2101 110.419 19.2101 112.141C19.2101 113.862 19.9466 114.691 21.383 114.691Z" fill="#EFEFEF"/>
<path fill-rule="evenodd" clip-rule="evenodd" d="M38.488 85.4952C38.1248 85.4952 37.8303 85.7896 37.8303 86.1528V88.1871C36.6501 88.4465 35.7669 89.4983 35.7669 90.7565V96.0177C35.7669 97.2758 36.6501 98.3277 37.8303 98.587V100.621C37.8303 100.984 38.1248 101.279 38.488 101.279H38.5483C38.9115 101.279 39.206 100.984 39.206 100.621V98.5871C40.3862 98.3277 41.2695 97.2759 41.2695 96.0177V90.7565C41.2695 89.4983 40.3862 88.4465 39.206 88.1871V86.1528C39.206 85.7896 38.9115 85.4952 38.5483 85.4952H38.488Z" fill="#89B9FF"/>
<path fill-rule="evenodd" clip-rule="evenodd" d="M50.8688 73.6574C50.5056 73.6574 50.2111 73.9519 50.2111 74.3151V80.2953C49.0309 80.5546 48.1476 81.6064 48.1476 82.8646V85.4952C48.1476 86.7534 49.0309 87.8052 50.2111 88.0645V94.0447C50.2111 94.4079 50.5056 94.7024 50.8688 94.7024H50.9291C51.2923 94.7024 51.5868 94.4079 51.5868 94.0447V88.0645C52.767 87.8052 53.6502 86.7533 53.6502 85.4952V82.8646C53.6502 81.6065 52.767 80.5546 51.5868 80.2953V74.3151C51.5868 73.9519 51.2923 73.6574 50.9291 73.6574H50.8688Z" fill="#F0FF9D"/>
<path fill-rule="evenodd" clip-rule="evenodd" d="M64.6254 73.6574C64.2621 73.6574 63.9677 73.9519 63.9677 74.3151V75.034C62.7874 75.2933 61.9041 76.3452 61.9041 77.6033V78.9186C61.9041 80.1768 62.7874 81.2287 63.9677 81.488V82.2069C63.9677 82.5701 64.2621 82.8646 64.6254 82.8646H64.6857C65.0489 82.8646 65.3433 82.5701 65.3433 82.2069V81.4879C66.5235 81.2286 67.4067 80.1767 67.4067 78.9186V77.6033C67.4067 76.3452 66.5235 75.2934 65.3433 75.034V74.3151C65.3433 73.9519 65.0489 73.6574 64.6857 73.6574H64.6254Z" fill="#89B9FF"/>
<path fill-rule="evenodd" clip-rule="evenodd" d="M78.3818 71.0268C78.0186 71.0268 77.7241 71.3212 77.7241 71.6844V81.6106C76.5439 81.8699 75.6607 82.9218 75.6607 84.1799V85.4952C75.6607 86.7533 76.5439 87.8052 77.7241 88.0645V88.7835C77.7241 89.1467 78.0186 89.4412 78.3818 89.4412H78.4421C78.8054 89.4412 79.0998 89.1467 79.0998 88.7835V88.0646C80.2801 87.8052 81.1633 86.7534 81.1633 85.4952V84.1799C81.1633 82.9218 80.2801 81.8699 79.0998 81.6106V71.6845C79.0998 71.3212 78.8054 71.0268 78.4421 71.0268H78.3818Z" fill="#F0FF9D"/>
<path fill-rule="evenodd" clip-rule="evenodd" d="M90.0747 78.9187C89.7115 78.9187 89.4171 79.2131 89.4171 79.5763V81.6105C88.2368 81.8699 87.3535 82.9217 87.3535 84.1799V94.7024C87.3535 95.9605 88.2368 97.0124 89.4171 97.2717V99.306C89.4171 99.6692 89.7115 99.9636 90.0747 99.9636H90.1351C90.4983 99.9636 90.7927 99.6692 90.7927 99.306V97.2717C91.9729 97.0123 92.8561 95.9605 92.8561 94.7024V84.1799C92.8561 82.9218 91.9729 81.87 90.7927 81.6106V79.5763C90.7927 79.2131 90.4983 78.9187 90.1351 78.9187H90.0747Z" fill="#F0FF9D"/>
<path fill-rule="evenodd" clip-rule="evenodd" d="M103.831 63.1349C103.468 63.1349 103.174 63.4294 103.174 63.7926V65.8269C101.993 66.0862 101.11 67.1381 101.11 68.3962V89.4412C101.11 90.6993 101.993 91.7511 103.174 92.0105V94.0447C103.174 94.408 103.468 94.7024 103.831 94.7024H103.892C104.255 94.7024 104.549 94.408 104.549 94.0447V92.0105C105.729 91.7512 106.613 90.6993 106.613 89.4411V68.3962C106.613 67.138 105.729 66.0861 104.549 65.8268V63.7926C104.549 63.4294 104.255 63.1349 103.892 63.1349H103.831Z" fill="#F0FF9D"/>
<path fill-rule="evenodd" clip-rule="evenodd" d="M116.212 32.2251C115.849 32.2251 115.554 32.5196 115.554 32.8828V34.917C114.374 35.1764 113.491 36.2282 113.491 37.4863V69.0538C113.491 70.5067 114.669 71.6844 116.122 71.6844H116.363C117.816 71.6844 118.994 70.5067 118.994 69.0538V37.4863C118.994 36.2282 118.11 35.1764 116.93 34.917V32.8828C116.93 32.5196 116.636 32.2251 116.272 32.2251H116.212Z" fill="#F0FF9D"/>
<path fill-rule="evenodd" clip-rule="evenodd" d="M128.593 40.117C128.23 40.117 127.935 40.4114 127.935 40.7746V41.4936C126.755 41.7529 125.872 42.8047 125.872 44.0629V48.0089C125.872 49.267 126.755 50.3189 127.935 50.5782V51.2971C127.935 51.6603 128.23 51.9548 128.593 51.9548H128.653C129.016 51.9548 129.311 51.6603 129.311 51.2971V50.5782C130.491 50.3188 131.374 49.267 131.374 48.0089V44.0629C131.374 42.8048 130.491 41.753 129.311 41.4936V40.7746C129.311 40.4114 129.016 40.117 128.653 40.117H128.593Z" fill="#F0FF9D"/>
<path fill-rule="evenodd" clip-rule="evenodd" d="M140.974 24.3332C140.611 24.3332 140.316 24.6277 140.316 24.9909V27.0251C139.136 27.2844 138.253 28.3363 138.253 29.5945V50.6395C138.253 51.8976 139.136 52.9495 140.316 53.2088V55.2431C140.316 55.6063 140.611 55.9007 140.974 55.9007H141.034C141.397 55.9007 141.692 55.6063 141.692 55.2431V53.2088C142.872 52.9494 143.755 51.8976 143.755 50.6395V29.5945C143.755 28.3364 142.872 27.2846 141.692 27.0252V24.9909C141.692 24.6277 141.397 24.3332 141.034 24.3332H140.974Z" fill="#F0FF9D"/>
<path fill-rule="evenodd" clip-rule="evenodd" d="M156.106 18.4144C155.743 18.4144 155.448 18.7088 155.448 19.072V21.1062C154.268 21.3655 153.385 22.4174 153.385 23.6756V28.9368C153.385 30.195 154.268 31.2469 155.448 31.5062V33.5404C155.448 33.9036 155.743 34.1981 156.106 34.1981H156.166C156.53 34.1981 156.824 33.9036 156.824 33.5404V31.5061C158.004 31.2467 158.887 30.1949 158.887 28.9368V23.6756C158.887 22.4175 158.004 21.3657 156.824 21.1063V19.072C156.824 18.7088 156.53 18.4144 156.166 18.4144H156.106Z" fill="#89B9FF"/>
<path fill-rule="evenodd" clip-rule="evenodd" d="M171.238 8.54951C170.875 8.54951 170.58 8.84395 170.58 9.20716V18.4756C169.4 18.7349 168.517 19.7868 168.517 21.045V27.6215C168.517 28.8797 169.4 29.9316 170.58 30.1909V39.4593C170.58 39.8225 170.875 40.117 171.238 40.117H171.298C171.662 40.117 171.956 39.8225 171.956 39.4593V30.1908C173.136 29.9315 174.019 28.8796 174.019 27.6215V21.045C174.019 19.7869 173.136 18.7351 171.956 18.4757V9.20716C171.956 8.84395 171.662 8.54951 171.298 8.54951H171.238Z" fill="#89B9FF"/>
<path fill-rule="evenodd" clip-rule="evenodd" d="M183.619 40.117C183.255 40.117 182.961 40.4114 182.961 40.7746V41.4936C181.781 41.753 180.898 42.8048 180.898 44.0629V51.9548C180.898 53.2129 181.781 54.2648 182.961 54.5241V60.5043C182.961 60.8675 183.255 61.162 183.619 61.162H183.679C184.042 61.162 184.337 60.8675 184.337 60.5043V54.5241C185.517 54.2648 186.4 53.2129 186.4 51.9548V44.0629C186.4 42.8048 185.517 41.7529 184.337 41.4936V40.7746C184.337 40.4114 184.042 40.117 183.679 40.117H183.619Z" fill="#F0FF9D"/>
<path fill-rule="evenodd" clip-rule="evenodd" d="M197.285 44.0629C195.832 44.0629 194.654 45.2407 194.654 46.6935V51.9548C194.654 53.2129 195.537 54.2647 196.718 54.5241V56.5584C196.718 56.9216 197.012 57.216 197.375 57.216H197.436C197.799 57.216 198.093 56.9216 198.093 56.5584V54.5241C199.273 54.2648 200.157 53.2129 200.157 51.9548V46.6935C200.157 45.2407 198.979 44.0629 197.526 44.0629H197.285Z" fill="#F0FF9D"/>
<path fill-rule="evenodd" clip-rule="evenodd" d="M211.132 9.20718C210.768 9.20718 210.474 9.50162 210.474 9.86483V11.8991C209.294 12.1584 208.411 13.2103 208.411 14.4684V35.5134C208.411 36.7715 209.294 37.8234 210.474 38.0827V40.117C210.474 40.4802 210.768 40.7746 211.132 40.7746H211.192C211.555 40.7746 211.85 40.4802 211.85 40.117V38.0827C213.03 37.8234 213.913 36.7715 213.913 35.5134V14.4684C213.913 13.2103 213.03 12.1584 211.85 11.8991V9.86483C211.85 9.50162 211.555 9.20718 211.192 9.20718H211.132Z" fill="#F0FF9D"/>
<path d="M33.0155 53.9278H224.918" stroke="#FEFEFE" stroke-width="0.657656" stroke-linecap="round" stroke-linejoin="round" stroke-dasharray="5.26"/>
<g filter="url(#filter0_d_9_489)">
<rect x="94.2319" y="47.3512" width="44.0207" height="13.1531" rx="6.57656" fill="#FEFEFE"/>
</g>
<path d="M103.837 57.1404H102.732V56.3985C101.477 56.2644 100.783 55.6488 100.783 54.5676V54.5203H101.967V54.6623C101.967 55.1516 102.211 55.3489 103.285 55.3489C104.232 55.3489 104.453 55.2069 104.453 54.8517C104.453 54.5282 104.271 54.4098 103.726 54.3151L102.243 54.102C101.296 53.9521 100.735 53.4786 100.735 52.6183C100.735 51.8923 101.28 51.1268 102.732 51.0005V50.2745H103.837V51.0321C104.997 51.2215 105.542 51.9002 105.542 52.8472V52.8946H104.35V52.7841C104.35 52.279 104.09 52.0659 103.04 52.0659C102.188 52.0659 101.927 52.2316 101.927 52.571C101.927 52.8788 102.101 52.9893 102.543 53.0682L104.026 53.3049C105.21 53.4943 105.636 54.0704 105.636 54.7965C105.636 55.5541 105.115 56.2486 103.837 56.3985V57.1404ZM110.746 56.3512H106.05V55.5936C106.05 54.6623 106.452 54.1809 107.565 53.81L108.923 53.3681C109.396 53.2023 109.57 53.0445 109.57 52.6973C109.57 52.2948 109.349 52.0659 108.481 52.0659C107.51 52.0659 107.218 52.3579 107.218 52.9419V53.0445H106.058V52.9419C106.058 51.916 106.76 50.9847 108.52 50.9847C110.114 50.9847 110.761 51.7108 110.761 52.713C110.761 53.6522 110.146 54.1178 109.207 54.3782L108.055 54.6939C107.542 54.8517 107.297 55.0017 107.297 55.42L108.678 55.2858H110.746V56.3512ZM115.669 56.3512H114.486V55.341H111.131V54.5361L114.296 51.0636H115.669V54.2756H116.474V55.341H115.669V56.3512ZM112.781 54.2756H114.486V52.4289H114.399L112.781 54.1888V54.2756ZM121.307 56.3512H120.123V55.341H116.769V54.5361L119.934 51.0636H121.307V54.2756H122.112V55.341H121.307V56.3512ZM118.419 54.2756H120.123V52.4289H120.037L118.419 54.1888V54.2756ZM124.049 56.3512H122.526V54.9701H124.049V56.3512ZM129.228 56.3512H124.532V55.5936C124.532 54.6623 124.935 54.1809 126.047 53.81L127.405 53.3681C127.878 53.2023 128.052 53.0445 128.052 52.6973C128.052 52.2948 127.831 52.0659 126.963 52.0659C125.992 52.0659 125.7 52.3579 125.7 52.9419V53.0445H124.54V52.9419C124.54 51.916 125.242 50.9847 127.002 50.9847C128.596 50.9847 129.244 51.7108 129.244 52.713C129.244 53.6522 128.628 54.1178 127.689 54.3782L126.537 54.6939C126.024 54.8517 125.779 55.0017 125.779 55.42L127.16 55.2858H129.228V56.3512ZM132.115 56.3512H130.932V52.5315H129.574V51.7187H129.795C130.379 51.7187 130.774 51.5845 131.034 51.0636H132.115V56.3512Z" fill="black"/>
<defs>
<filter id="filter0_d_9_489" x="78.4481" y="36.8287" width="75.5882" height="44.7206" filterUnits="userSpaceOnUse" color-interpolation-filters="sRGB">
<feFlood flood-opacity="0" result="BackgroundImageFix"/>
<feColorMatrix in="SourceAlpha" type="matrix" values="0 0 0 0 0 0 0 0 0 0 0 0 0 0 0 0 0 0 127 0" result="hardAlpha"/>
<feOffset dy="5.26124"/>
<feGaussianBlur stdDeviation="7.89187"/>
<feColorMatrix type="matrix" values="0 0 0 0 0.556863 0 0 0 0 0.898039 0 0 0 0 0.796078 0 0 0 0.4 0"/>
<feBlend mode="normal" in2="BackgroundImageFix" result="effect1_dropShadow_9_489"/>
<feBlend mode="normal" in="SourceGraphic" in2="effect1_dropShadow_9_489" result="shape"/>
</filter>
</defs>
</svg>
