<svg width="53" height="31" viewBox="0 0 53 31" fill="none" xmlns="http://www.w3.org/2000/svg">
<path d="M51.7631 3.30777L46.3092 12.743C45.8809 13.4839 44.7943 13.4307 44.4406 12.6514L39.6814 2.16868C39.3224 1.37814 38.2145 1.33812 37.7995 2.10071L32.4384 11.952C32.3678 12.0816 32.2708 12.1949 32.1535 12.2846L26.69 16.4643C26.2284 16.8174 25.5679 16.7294 25.215 16.2676L18.5144 7.50062C18.1641 7.04237 17.5102 6.95159 17.0484 7.29709L12.2601 10.8793C12.0994 10.9995 11.9765 11.1632 11.9058 11.351L7.09806 24.1201C6.9998 24.3811 6.80194 24.5924 6.54796 24.7076L0.742279 27.3399" stroke="#1DF81F" stroke-width="1.05198" stroke-linecap="round"/>
<path d="M51.7631 26.5873V3.25675L45.2859 14.1081L38.8086 0.998953L32.3314 12.9012L25.8541 17.8564L17.8821 7.42597L12.314 11.5353L9.91009 17.8368L7.05414 24.3295L0.742279 27.3399L51.7631 26.5873Z" fill="url(#paint0_linear_9_607)" fill-opacity="0.1"/>
<defs>
<linearGradient id="paint0_linear_9_607" x1="25.9897" y1="11.5353" x2="25.9897" y2="29.5977" gradientUnits="userSpaceOnUse">
<stop offset="0.380208" stop-color="#05B706"/>
<stop offset="1" stop-color="#05B706" stop-opacity="0"/>
</linearGradient>
</defs>
</svg>
