<svg width="37" height="37" viewBox="0 0 37 37" fill="none" xmlns="http://www.w3.org/2000/svg">
<mask id="mask0_17_228" style="mask-type:luminance" maskUnits="userSpaceOnUse" x="0" y="0" width="37" height="37">
<path d="M18.5 34.75C20.6344 34.7526 22.7482 34.3335 24.7201 33.5167C26.692 32.6999 28.4831 31.5015 29.9904 29.9904C31.5015 28.4831 32.6999 26.692 33.5167 24.7201C34.3335 22.7482 34.7526 20.6344 34.75 18.5C34.7526 16.3656 34.3335 14.2518 33.5167 12.2799C32.6999 10.308 31.5015 8.51696 29.9904 7.00964C28.4831 5.49852 26.692 4.30013 24.7201 3.48332C22.7482 2.66651 20.6344 2.24738 18.5 2.25001C16.3656 2.24738 14.2518 2.66651 12.2799 3.48332C10.308 4.30013 8.51696 5.49852 7.00964 7.00964C5.49852 8.51696 4.30013 10.308 3.48332 12.2799C2.66651 14.2518 2.24738 16.3656 2.25001 18.5C2.24738 20.6344 2.66651 22.7482 3.48332 24.7201C4.30013 26.692 5.49852 28.4831 7.00964 29.9904C8.51696 31.5015 10.308 32.6999 12.2799 33.5167C14.2518 34.3335 16.3656 34.7526 18.5 34.75Z" fill="white" stroke="white" stroke-width="3.25" stroke-linejoin="round"/>
<path d="M12 18.5L16.875 23.375L26.625 13.625" stroke="black" stroke-width="3.25" stroke-linecap="round" stroke-linejoin="round"/>
</mask>
<g mask="url(#mask0_17_228)">
<path d="M-1 -1H38V38H-1V-1Z" fill="#00C851"/>
</g>
</svg>
