<svg width="20" height="21" viewBox="0 0 20 21" fill="none" xmlns="http://www.w3.org/2000/svg">
<path d="M10.001 7.95264C9.20535 7.95264 8.44229 8.26871 7.87968 8.83132C7.31707 9.39392 7.001 10.157 7.001 10.9526C7.001 11.7483 7.31707 12.5113 7.87968 13.074C8.44229 13.6366 9.20535 13.9526 10.001 13.9526C10.7966 13.9526 11.5597 13.6366 12.1223 13.074C12.6849 12.5113 13.001 11.7483 13.001 10.9526C13.001 10.157 12.6849 9.39392 12.1223 8.83132C11.5597 8.26871 10.7966 7.95264 10.001 7.95264ZM10.001 5.95264C11.3271 5.95264 12.5989 6.47942 13.5365 7.4171C14.4742 8.35478 15.001 9.62655 15.001 10.9526C15.001 12.2787 14.4742 13.5505 13.5365 14.4882C12.5989 15.4259 11.3271 15.9526 10.001 15.9526C8.67492 15.9526 7.40315 15.4259 6.46547 14.4882C5.52778 13.5505 5.001 12.2787 5.001 10.9526C5.001 9.62655 5.52778 8.35478 6.46547 7.4171C7.40315 6.47942 8.67492 5.95264 10.001 5.95264ZM16.501 5.70264C16.501 6.03416 16.3693 6.3521 16.1349 6.58652C15.9005 6.82094 15.5825 6.95264 15.251 6.95264C14.9195 6.95264 14.6015 6.82094 14.3671 6.58652C14.1327 6.3521 14.001 6.03416 14.001 5.70264C14.001 5.37112 14.1327 5.05317 14.3671 4.81875C14.6015 4.58433 14.9195 4.45264 15.251 4.45264C15.5825 4.45264 15.9005 4.58433 16.1349 4.81875C16.3693 5.05317 16.501 5.37112 16.501 5.70264ZM10.001 2.95264C7.527 2.95264 7.123 2.95964 5.972 3.01064C5.188 3.04764 4.662 3.15264 4.174 3.34264C3.76583 3.49301 3.39672 3.73327 3.094 4.04564C2.78127 4.34826 2.54066 4.71738 2.39 5.12564C2.2 5.61564 2.095 6.14064 2.059 6.92364C2.007 8.02764 2 8.41364 2 10.9526C2 13.4276 2.007 13.8306 2.058 14.9816C2.095 15.7646 2.2 16.2916 2.389 16.7786C2.559 17.2136 2.759 17.5266 3.091 17.8586C3.428 18.1946 3.741 18.3956 4.171 18.5616C4.665 18.7526 5.191 18.8586 5.971 18.8946C7.075 18.9466 7.461 18.9526 10 18.9526C12.475 18.9526 12.878 18.9456 14.029 18.8946C14.811 18.8576 15.337 18.7526 15.826 18.5636C16.2342 18.4133 16.6033 18.173 16.906 17.8606C17.243 17.5246 17.444 17.2116 17.61 16.7806C17.8 16.2886 17.906 15.7626 17.942 14.9806C17.994 13.8776 18 13.4906 18 10.9526C18 8.47864 17.993 8.07464 17.942 6.92364C17.905 6.14164 17.799 5.61364 17.61 5.12564C17.4596 4.71747 17.2194 4.34836 16.907 4.04564C16.6044 3.73291 16.2353 3.4923 15.827 3.34164C15.337 3.15164 14.811 3.04664 14.029 3.01064C12.926 2.95864 12.54 2.95264 10 2.95264M10 0.952637C12.717 0.952637 13.056 0.962637 14.123 1.01264C15.187 1.06264 15.913 1.22964 16.55 1.47764C17.21 1.73164 17.766 2.07564 18.322 2.63064C18.8307 3.13037 19.2242 3.73511 19.475 4.40264C19.722 5.03964 19.89 5.76564 19.94 6.83064C19.987 7.89664 20 8.23564 20 10.9526C20 13.6696 19.99 14.0086 19.94 15.0746C19.89 16.1406 19.722 16.8646 19.475 17.5026C19.2242 18.1702 18.8307 18.7749 18.322 19.2746C17.8223 19.7833 17.2175 20.1768 16.55 20.4276C15.913 20.6746 15.187 20.8426 14.123 20.8926C13.056 20.9396 12.717 20.9526 10 20.9526C7.283 20.9526 6.944 20.9426 5.877 20.8926C4.813 20.8426 4.088 20.6746 3.45 20.4276C2.78247 20.1768 2.17773 19.7833 1.678 19.2746C1.16931 18.7749 0.775816 18.1702 0.525 17.5026C0.277 16.8656 0.11 16.1396 0.0599999 15.0746C0.0119999 14.0086 0 13.6696 0 10.9526C0 8.23564 0.00999994 7.89664 0.0599999 6.83064C0.11 5.76464 0.277 5.04064 0.525 4.40264C0.775816 3.73511 1.16931 3.13037 1.678 2.63064C2.17773 2.12194 2.78247 1.72845 3.45 1.47764C4.087 1.22964 4.812 1.06264 5.877 1.01264C6.945 0.965637 7.284 0.952637 10.001 0.952637" fill="white"/>
</svg>
