<svg width="16" height="15" viewBox="0 0 16 15" fill="none" xmlns="http://www.w3.org/2000/svg">
<path d="M14.4242 15L8.98538 9.5612C8.55112 9.9312 8.05171 10.2175 7.48716 10.4202C6.92261 10.6228 6.35516 10.7242 5.78482 10.7242C4.39401 10.7242 3.21685 10.2427 2.25335 9.2798C1.28985 8.31688 0.808105 7.14001 0.808105 5.74919C0.808105 4.35838 1.28927 3.18093 2.25161 2.21685C3.21395 1.25277 4.39053 0.770157 5.78135 0.768999C7.17217 0.767841 8.34991 1.24959 9.31456 2.21425C10.2792 3.1789 10.7615 4.35635 10.7615 5.74659C10.7615 6.34993 10.6547 6.93388 10.4411 7.49843C10.2274 8.06298 9.94657 8.54588 9.59857 8.94715L15.0374 14.3851L14.4242 15ZM5.78569 9.85477C6.93795 9.85477 7.91071 9.45814 8.70398 8.66487C9.49724 7.87161 9.89388 6.89856 9.89388 5.74572C9.89388 4.59288 9.49724 3.62012 8.70398 2.82743C7.91071 2.03475 6.93795 1.63812 5.78569 1.63754C4.63343 1.63696 3.66038 2.03359 2.86654 2.82743C2.0727 3.62128 1.67606 4.59404 1.67664 5.74572C1.67722 6.8974 2.07385 7.87016 2.86654 8.664C3.65922 9.45785 4.63199 9.85448 5.78482 9.8539" fill="#CDCDCD"/>
</svg>
