<svg width="38" height="38" viewBox="0 0 38 38" fill="none" xmlns="http://www.w3.org/2000/svg">
<path d="M6.85967 5.27381C10.2084 2.30237 14.5322 0.664747 19.0092 0.672144C29.1347 0.672144 37.3425 8.87998 37.3425 19.0055C37.3489 22.7527 36.2012 26.411 34.0553 29.483L29.0925 19.0055H33.6758C33.6763 16.0891 32.8072 13.2389 31.1798 10.8189C29.5524 8.39883 27.2405 6.51892 24.5394 5.41928C21.8383 4.31964 18.8707 4.05021 16.0158 4.64542C13.1608 5.24063 10.5482 6.67344 8.51151 8.76081L6.85967 5.27381ZM31.1568 32.7371C27.8085 35.7082 23.4856 37.3458 19.0092 37.3388C8.88368 37.3388 0.675842 29.131 0.675842 19.0055C0.675842 15.1096 1.89134 11.498 3.96301 8.52798L8.92584 19.0055H4.34251C4.34283 21.9213 5.21224 24.7708 6.83971 27.1901C8.46718 29.6095 10.7788 31.4888 13.4794 32.5882C16.1801 33.6875 19.1471 33.9569 22.0015 33.362C24.856 32.7671 27.4684 31.3349 29.505 29.2483L31.1568 32.7371ZM21.6033 24.1883L16.4187 19.0036L11.2322 24.1883L8.63984 21.596L16.4187 13.8171L21.6033 19.0036L26.788 13.8171L29.3822 16.4113L21.6033 24.1883Z" fill="white"/>
</svg>
