<svg width="24" height="25" viewBox="0 0 24 25" fill="none" xmlns="http://www.w3.org/2000/svg">
<path d="M19.4851 20.6681L13.2231 14.4061C12.7231 14.8321 12.1481 15.1618 11.4981 15.3951C10.8481 15.6284 10.1948 15.7451 9.53811 15.7451C7.93677 15.7451 6.58144 15.1908 5.47211 14.0821C4.36277 12.9734 3.80811 11.6184 3.80811 10.0171C3.80811 8.41578 4.36211 7.06011 5.47011 5.95011C6.57811 4.84011 7.93277 4.28445 9.53411 4.28311C11.1354 4.28178 12.4914 4.83645 13.6021 5.94711C14.7128 7.05778 15.2681 8.41345 15.2681 10.0141C15.2681 10.7088 15.1451 11.3811 14.8991 12.0311C14.6531 12.6811 14.3298 13.2371 13.9291 13.6991L20.1911 19.9601L19.4851 20.6681ZM9.5391 14.7441C10.8658 14.7441 11.9858 14.2874 12.8991 13.3741C13.8124 12.4608 14.2691 11.3404 14.2691 10.0131C14.2691 8.68578 13.8124 7.56578 12.8991 6.65311C11.9858 5.74045 10.8658 5.28378 9.5391 5.28311C8.21244 5.28245 7.09211 5.73911 6.17811 6.65311C5.26411 7.56711 4.80744 8.68711 4.80811 10.0131C4.80877 11.3391 5.26544 12.4591 6.17811 13.3731C7.09077 14.2871 8.21077 14.7438 9.53811 14.7431" fill="#A4A4A4"/>
</svg>
