<svg width="33" height="33" viewBox="0 0 33 33" fill="none" xmlns="http://www.w3.org/2000/svg">
<path d="M23.4167 20.6667L32.5833 29.8333L29.8333 32.5833L20.6667 23.4167V21.9683L20.1717 21.455C18.0158 23.3139 15.2633 24.3355 12.4167 24.3333C9.25617 24.3333 6.22512 23.0778 3.99031 20.843C1.7555 18.6082 0.5 15.5772 0.5 12.4167C0.5 9.25617 1.7555 6.22512 3.99031 3.99031C6.22512 1.7555 9.25617 0.5 12.4167 0.5C15.5772 0.5 18.6082 1.7555 20.843 3.99031C23.0778 6.22512 24.3333 9.25617 24.3333 12.4167C24.3333 15.3683 23.2517 18.0817 21.455 20.1717L21.9683 20.6667H23.4167ZM12.4167 3.25L11.4083 3.305C10.9683 4.25833 10.29 5.87167 9.795 7.83333H15.0383C14.5433 5.87167 13.865 4.25833 13.425 3.305C13.095 3.25 12.765 3.25 12.4167 3.25ZM20.355 7.83333C19.2651 5.9256 17.5189 4.47911 15.4417 3.76333C15.8817 4.735 16.45 6.14667 16.8717 7.83333H20.355ZM4.47833 7.83333H7.96167C8.38333 6.14667 8.95167 4.735 9.39167 3.76333C7.31442 4.47911 5.56821 5.9256 4.47833 7.83333ZM3.25 12.4167C3.25 13.3333 3.39667 14.305 3.67167 15.1667H7.595L7.375 12.4167L7.595 9.66667H3.67167C3.39667 10.5283 3.25 11.5 3.25 12.4167ZM21.1617 15.1667C21.4367 14.305 21.5833 13.3333 21.5833 12.4167C21.5833 11.5 21.4367 10.5283 21.1617 9.66667H17.2383C17.5296 11.4884 17.5296 13.3449 17.2383 15.1667H21.1617ZM9.42833 9.66667L9.20833 12.4167L9.42833 15.1667H15.405C15.6963 13.3449 15.6963 11.4884 15.405 9.66667H9.42833ZM12.4167 21.5833C12.7467 21.5833 13.0767 21.5833 13.3883 21.5283C13.8467 20.575 14.5433 18.9617 15.0383 17H9.795C10.29 18.9617 10.9867 20.575 11.445 21.5283L12.4167 21.5833ZM20.355 17H16.8717C16.45 18.6867 15.8817 20.0983 15.4417 21.07C17.5189 20.3542 19.2651 18.9077 20.355 17ZM4.47833 17C5.56821 18.9077 7.31442 20.3542 9.39167 21.07C8.95167 20.0983 8.38333 18.6867 7.96167 17H4.47833Z" fill="white"/>
</svg>
