<svg width="14" height="16" viewBox="0 0 14 16" fill="none" xmlns="http://www.w3.org/2000/svg">
<path d="M12.3549 8.705C12.3849 8.48 12.3999 8.2475 12.3999 8C12.3999 7.76 12.3849 7.52 12.3474 7.295L13.8699 6.11C13.9355 6.05592 13.9803 5.98077 13.9967 5.89735C14.0131 5.81393 14.0001 5.7274 13.9599 5.6525L12.5199 3.1625C12.4772 3.08739 12.4095 3.02968 12.3286 2.99951C12.2477 2.96934 12.1587 2.96863 12.0774 2.9975L10.2849 3.7175C9.90985 3.4325 9.51235 3.1925 9.06985 3.0125L8.79985 1.1075C8.78657 1.02165 8.74294 0.943403 8.67688 0.88698C8.61083 0.830556 8.52672 0.799694 8.43985 0.799998H5.55985C5.37985 0.799998 5.23735 0.927498 5.20735 1.1075L4.93735 3.0125C4.49485 3.1925 4.08985 3.44 3.72235 3.7175L1.92985 2.9975C1.76485 2.9375 1.57735 2.9975 1.48735 3.1625L0.054851 5.6525C-0.035149 5.81 -0.00514905 6.005 0.144851 6.11L1.66735 7.295C1.62985 7.52 1.59985 7.7675 1.59985 8C1.59985 8.2325 1.61485 8.48 1.65235 8.705L0.129851 9.89C0.064244 9.94407 0.0194162 10.0192 0.00300537 10.1026C-0.0134055 10.1861 -0.00038404 10.2726 0.0398511 10.3475L1.47985 12.8375C1.56985 13.0025 1.75735 13.055 1.92235 13.0025L3.71485 12.2825C4.08985 12.5675 4.48735 12.8075 4.92985 12.9875L5.19985 14.8925C5.23735 15.0725 5.37985 15.2 5.55985 15.2H8.43985C8.61985 15.2 8.76985 15.0725 8.79235 14.8925L9.06235 12.9875C9.50485 12.8075 9.90985 12.5675 10.2774 12.2825L12.0699 13.0025C12.2349 13.0625 12.4224 13.0025 12.5124 12.8375L13.9524 10.3475C14.0424 10.1825 14.0049 9.995 13.8624 9.89L12.3549 8.705ZM6.99985 10.7C5.51485 10.7 4.29985 9.485 4.29985 8C4.29985 6.515 5.51485 5.3 6.99985 5.3C8.48485 5.3 9.69985 6.515 9.69985 8C9.69985 9.485 8.48485 10.7 6.99985 10.7Z" fill="#181818"/>
</svg>
