<svg width="18" height="19" viewBox="0 0 18 19" fill="none" xmlns="http://www.w3.org/2000/svg">
<path d="M15 3.95264C17.07 5.99264 17.85 8.84264 17.36 11.5026C17.77 12.2226 18 13.0626 18 13.9526C18 15.2787 17.4732 16.5505 16.5355 17.4882C15.5979 18.4259 14.3261 18.9526 13 18.9526C12.11 18.9526 11.27 18.7226 10.55 18.3126C7.89 18.8026 5.04 18.0226 3 15.9526C0.93 13.9126 0.15 11.0626 0.64 8.40264C0.23 7.68264 0 6.84264 0 5.95264C0 4.62655 0.526784 3.35478 1.46447 2.4171C2.40215 1.47942 3.67392 0.952637 5 0.952637C5.89 0.952637 6.73 1.18264 7.45 1.59264C10.11 1.10264 12.96 1.88264 15 3.95264ZM9.04 15.1126C11.91 15.1126 13.34 13.7326 13.34 11.8726C13.34 10.6826 12.78 9.41264 10.61 8.92264L8.62 8.48264C7.86 8.31264 7 8.08264 7 7.37264C7 6.65264 7.6 6.15264 8.7 6.15264C10.93 6.15264 10.72 7.68264 11.83 7.68264C12.41 7.68264 12.91 7.34264 12.91 6.75264C12.91 5.38264 10.72 4.35264 8.86 4.35264C6.85 4.35264 4.7 5.21264 4.7 7.49264C4.7 8.59264 5.09 9.76264 7.25 10.3026L9.94 10.9826C10.75 11.1826 10.95 11.6326 10.95 12.0526C10.95 12.7326 10.27 13.4026 9.04 13.4026C6.63 13.4026 6.96 11.5526 5.67 11.5526C5.09 11.5526 4.67 11.9526 4.67 12.5226C4.67 13.6326 6 15.1126 9.04 15.1126Z" fill="white"/>
</svg>
