<svg width="44" height="34" viewBox="0 0 44 34" fill="none" xmlns="http://www.w3.org/2000/svg">
<path fill-rule="evenodd" clip-rule="evenodd" d="M37.2488 0.774994C37.4834 0.91054 37.689 1.09099 37.8538 1.30603C38.0187 1.52106 38.1396 1.76648 38.2095 2.02825C38.2795 2.29001 38.2972 2.563 38.2617 2.83162C38.2261 3.10023 38.138 3.35921 38.0023 3.59374L28.4543 20.113C29.7029 21.6838 30.3362 23.6558 30.2357 25.66C30.1352 27.6641 29.3077 29.5628 27.9081 31.0008C26.5086 32.4388 24.6329 33.3174 22.6322 33.4721C20.6316 33.6268 18.6431 33.0471 17.0391 31.8414C15.4351 30.6357 14.3254 28.8868 13.918 26.922C13.5105 24.9571 13.8331 22.9112 14.8253 21.1671C15.8176 19.4229 17.4115 18.1002 19.3087 17.4466C21.2059 16.793 23.2763 16.8532 25.1323 17.616L29.9695 9.25049C28.1171 8.32717 26.1184 7.73259 24.0625 7.49325V8.74999C24.0625 9.297 23.8452 9.82161 23.4584 10.2084C23.0716 10.5952 22.547 10.8125 22 10.8125C21.453 10.8125 20.9284 10.5952 20.5416 10.2084C20.1548 9.82161 19.9375 9.297 19.9375 8.74999V7.49325C18.2041 7.69449 16.5096 8.14848 14.9078 8.84074L15.5375 9.92974C15.6729 10.1645 15.7608 10.4236 15.7961 10.6923C15.8314 10.961 15.8134 11.234 15.7432 11.4957C15.6729 11.7575 15.5518 12.0028 15.3868 12.2178C15.2218 12.4327 15.016 12.6131 14.7813 12.7485C14.5465 12.8839 14.2874 12.9718 14.0187 13.0071C13.75 13.0424 13.477 13.0244 13.2153 12.9542C12.9535 12.8839 12.7082 12.7628 12.4932 12.5978C12.2783 12.4327 12.0979 12.227 11.9625 11.9922L11.3355 10.9032C9.93472 11.9452 8.69414 13.1867 7.65326 14.5882L8.74226 15.2125C9.21633 15.486 9.56234 15.9366 9.70416 16.4652C9.84599 16.9939 9.77201 17.5572 9.49851 18.0312C9.36308 18.266 9.18275 18.4717 8.9678 18.6368C8.75285 18.8018 8.5075 18.9229 8.24576 18.9932C7.71714 19.135 7.15383 19.061 6.67976 18.7875L5.59076 18.1577C4.87088 19.8243 4.40908 21.5908 4.22126 23.3965C4.16473 23.9406 3.89438 24.4399 3.46968 24.7847C3.04498 25.1295 2.50072 25.2914 1.95663 25.2349C1.41254 25.1783 0.913186 24.908 0.568424 24.4833C0.223662 24.0586 0.0617315 23.5143 0.118256 22.9702C0.488287 19.4136 1.71971 16.0007 3.70589 13.0272C5.69206 10.0536 8.37313 7.60903 11.5169 5.90509C14.6607 4.20115 18.1725 3.28921 21.7481 3.24825C25.3238 3.20728 28.8555 4.03853 32.0375 5.67L34.43 1.52849C34.5656 1.29387 34.746 1.08826 34.961 0.923406C35.1761 0.758549 35.4215 0.63768 35.6833 0.567705C35.945 0.49773 36.218 0.48002 36.4866 0.515588C36.7552 0.551156 37.0142 0.639303 37.2488 0.774994ZM36.9545 11.9042C37.398 11.5841 37.9504 11.4532 38.4904 11.5404C39.0303 11.6275 39.5135 11.9256 39.8338 12.369C42.6955 16.3309 44.1565 21.1329 43.9863 26.0172C43.9799 26.29 43.9195 26.5588 43.8086 26.8081C43.6976 27.0573 43.5383 27.2821 43.3399 27.4694C43.1415 27.6566 42.9079 27.8027 42.6526 27.899C42.3973 27.9953 42.1255 28.0401 41.8528 28.0306C41.5801 28.0211 41.312 27.9577 41.0641 27.8439C40.8161 27.7301 40.5932 27.5682 40.4082 27.3677C40.2232 27.1671 40.0799 26.9318 39.9865 26.6755C39.893 26.4191 39.8514 26.1468 39.864 25.8742C40.0026 21.9051 38.8154 18.0029 36.4898 14.7835C36.3314 14.5637 36.2178 14.315 36.1556 14.0513C36.0934 13.7877 36.0837 13.5144 36.1272 13.247C36.1706 12.9797 36.2662 12.7235 36.4086 12.4931C36.5511 12.2627 36.7375 12.0626 36.9573 11.9042H36.9545ZM26.125 25.25C26.125 26.344 25.6904 27.3932 24.9168 28.1668C24.1432 28.9404 23.094 29.375 22 29.375C20.906 29.375 19.8568 28.9404 19.0832 28.1668C18.3096 27.3932 17.875 26.344 17.875 25.25C17.875 24.156 18.3096 23.1068 19.0832 22.3332C19.8568 21.5596 20.906 21.125 22 21.125C23.094 21.125 24.1432 21.5596 24.9168 22.3332C25.6904 23.1068 26.125 24.156 26.125 25.25Z" fill="white"/>
</svg>
