<svg width="20" height="21" viewBox="0 0 20 21" fill="none" xmlns="http://www.w3.org/2000/svg">
<path d="M10 0.952637C4.48 0.952637 0 5.43264 0 10.9526C0 16.4726 4.48 20.9526 10 20.9526C15.52 20.9526 20 16.4726 20 10.9526C20 5.43264 15.52 0.952637 10 0.952637ZM14.64 7.75264C14.49 9.33264 13.84 13.1726 13.51 14.9426C13.37 15.6926 13.09 15.9426 12.83 15.9726C12.25 16.0226 11.81 15.5926 11.25 15.2226C10.37 14.6426 9.87 14.2826 9.02 13.7226C8.03 13.0726 8.67 12.7126 9.24 12.1326C9.39 11.9826 11.95 9.65264 12 9.44264C12.0069 9.41083 12.006 9.37781 11.9973 9.34644C11.9886 9.31507 11.9724 9.2863 11.95 9.26264C11.89 9.21264 11.81 9.23264 11.74 9.24264C11.65 9.26264 10.25 10.1926 7.52 12.0326C7.12 12.3026 6.76 12.4426 6.44 12.4326C6.08 12.4226 5.4 12.2326 4.89 12.0626C4.26 11.8626 3.77 11.7526 3.81 11.4026C3.83 11.2226 4.08 11.0426 4.55 10.8526C7.47 9.58264 9.41 8.74264 10.38 8.34264C13.16 7.18264 13.73 6.98264 14.11 6.98264C14.19 6.98264 14.38 7.00264 14.5 7.10264C14.6 7.18264 14.63 7.29264 14.64 7.37264C14.63 7.43264 14.65 7.61264 14.64 7.75264Z" fill="white"/>
</svg>
