<svg width="12" height="14" viewBox="0 0 12 14" fill="none" xmlns="http://www.w3.org/2000/svg">
<path fill-rule="evenodd" clip-rule="evenodd" d="M5.60249 0.602501C5.70796 0.497163 5.85093 0.437996 5.99999 0.437996C6.14906 0.437996 6.29202 0.497163 6.39749 0.602501L10.8975 5.1025C10.9528 5.154 10.9971 5.2161 11.0278 5.2851C11.0586 5.3541 11.0751 5.42858 11.0764 5.50411C11.0778 5.57964 11.0639 5.65466 11.0356 5.7247C11.0073 5.79474 10.9652 5.85837 10.9118 5.91178C10.8584 5.96519 10.7947 6.0073 10.7247 6.03559C10.6546 6.06388 10.5796 6.07778 10.5041 6.07644C10.4286 6.07511 10.3541 6.05858 10.2851 6.02784C10.2161 5.99709 10.154 5.95277 10.1025 5.8975L6.56249 2.3575V13C6.56249 13.1492 6.50323 13.2923 6.39774 13.3977C6.29225 13.5032 6.14918 13.5625 5.99999 13.5625C5.85081 13.5625 5.70774 13.5032 5.60225 13.3977C5.49676 13.2923 5.43749 13.1492 5.43749 13V2.3575L1.89749 5.8975C1.846 5.95277 1.7839 5.99709 1.7149 6.02784C1.6459 6.05858 1.57141 6.07511 1.49588 6.07644C1.42036 6.07778 1.34534 6.06388 1.27529 6.03559C1.20525 6.0073 1.14163 5.96519 1.08821 5.91178C1.0348 5.85837 0.992692 5.79474 0.964401 5.7247C0.93611 5.65466 0.922217 5.57964 0.923549 5.50411C0.924882 5.42858 0.941413 5.3541 0.972157 5.2851C1.0029 5.2161 1.04723 5.154 1.10249 5.1025L5.60249 0.602501Z" fill="#181818"/>
</svg>
