<svg width="22" height="18" viewBox="0 0 22 18" fill="none" xmlns="http://www.w3.org/2000/svg">
<path d="M21.46 2.95264C20.69 3.30264 19.86 3.53264 19 3.64264C19.88 3.11264 20.56 2.27264 20.88 1.26264C20.05 1.76264 19.13 2.11264 18.16 2.31264C17.37 1.45264 16.26 0.952637 15 0.952637C12.65 0.952637 10.73 2.87264 10.73 5.24264C10.73 5.58264 10.77 5.91264 10.84 6.22264C7.28 6.04264 4.11 4.33264 2 1.74264C1.63 2.37264 1.42 3.11264 1.42 3.89264C1.42 5.38264 2.17 6.70264 3.33 7.45264C2.62 7.45264 1.96 7.25264 1.38 6.95264V6.98264C1.38 9.06264 2.86 10.8026 4.82 11.1926C4.19084 11.3656 3.53004 11.3895 2.89 11.2626C3.16161 12.1151 3.69354 12.861 4.41102 13.3956C5.1285 13.9301 5.99545 14.2263 6.89 14.2426C5.37367 15.4431 3.49401 16.092 1.56 16.0826C1.22 16.0826 0.880001 16.0626 0.540001 16.0226C2.44 17.2426 4.7 17.9526 7.12 17.9526C15 17.9526 19.33 11.4126 19.33 5.74264C19.33 5.55264 19.33 5.37264 19.32 5.18264C20.16 4.58264 20.88 3.82264 21.46 2.95264Z" fill="white"/>
</svg>
