<svg width="20" height="21" viewBox="0 0 20 21" fill="none" xmlns="http://www.w3.org/2000/svg">
<path d="M17.05 3.86269C16.1331 2.9368 15.041 2.20266 13.8375 1.70305C12.634 1.20345 11.3431 0.948374 10.04 0.952691C4.58 0.952691 0.130003 5.40269 0.130003 10.8627C0.130003 12.6127 0.590003 14.3127 1.45 15.8127L0.0500031 20.9527L5.3 19.5727C6.75 20.3627 8.38 20.7827 10.04 20.7827C15.5 20.7827 19.95 16.3327 19.95 10.8727C19.95 8.22269 18.92 5.73269 17.05 3.86269ZM10.04 19.1027C8.56 19.1027 7.11 18.7027 5.84 17.9527L5.54 17.7727L2.42 18.5927L3.25 15.5527L3.05 15.2427C2.22755 13.9297 1.79093 12.412 1.79 10.8627C1.79 6.32269 5.49 2.62269 10.03 2.62269C12.23 2.62269 14.3 3.48269 15.85 5.04269C16.6176 5.80655 17.2259 6.71523 17.6396 7.71602C18.0533 8.7168 18.2642 9.78978 18.26 10.8727C18.28 15.4127 14.58 19.1027 10.04 19.1027ZM14.56 12.9427C14.31 12.8227 13.09 12.2227 12.87 12.1327C12.64 12.0527 12.48 12.0127 12.31 12.2527C12.14 12.5027 11.67 13.0627 11.53 13.2227C11.39 13.3927 11.24 13.4127 10.99 13.2827C10.74 13.1627 9.94 12.8927 9 12.0527C8.26 11.3927 7.77 10.5827 7.62 10.3327C7.48 10.0827 7.6 9.95269 7.73 9.82269C7.84 9.71269 7.98 9.53269 8.1 9.39269C8.22 9.25269 8.27 9.14269 8.35 8.98269C8.43 8.81269 8.39 8.67269 8.33 8.55269C8.27 8.43269 7.77 7.21269 7.57 6.71269C7.37 6.23269 7.16 6.29269 7.01 6.28269H6.53C6.36 6.28269 6.1 6.34269 5.87 6.59269C5.65 6.84269 5.01 7.44269 5.01 8.66269C5.01 9.88269 5.9 11.0627 6.02 11.2227C6.14 11.3927 7.77 13.8927 10.25 14.9627C10.84 15.2227 11.3 15.3727 11.66 15.4827C12.25 15.6727 12.79 15.6427 13.22 15.5827C13.7 15.5127 14.69 14.9827 14.89 14.4027C15.1 13.8227 15.1 13.3327 15.03 13.2227C14.96 13.1127 14.81 13.0627 14.56 12.9427Z" fill="white"/>
</svg>
