<svg width="20" height="21" viewBox="0 0 20 21" fill="none" xmlns="http://www.w3.org/2000/svg">
<g clip-path="url(#clip0_17_825)">
<path d="M5.52411 10.3606C5.52741 11.2747 5.6419 12.1851 5.86504 13.0716H9.42829V7.85864H5.81555C5.62569 8.67921 5.52794 9.51839 5.52411 10.3606Z" fill="white"/>
<path d="M10.363 7.85864V13.0716H13.9263C14.1587 12.1862 14.2824 11.2759 14.2947 10.3606C14.2927 9.51859 14.1968 8.67942 14.0088 7.85864H10.363Z" fill="white"/>
<path d="M9.89569 1.56226C8.15558 1.56226 6.45455 2.07826 5.0077 3.04501C3.56085 4.01177 2.43316 5.38585 1.76725 6.99351C1.10134 8.60116 0.927106 10.3702 1.26658 12.0769C1.60606 13.7835 2.44401 15.3512 3.67445 16.5817C4.9049 17.8121 6.47258 18.6501 8.17926 18.9895C9.88594 19.329 11.655 19.1548 13.2626 18.4889C14.8703 17.823 16.2443 16.6953 17.2111 15.2484C18.1779 13.8016 18.6939 12.1005 18.6939 10.3604C18.6939 8.027 17.7669 5.78915 16.1169 4.13918C14.467 2.4892 12.2291 1.56226 9.89569 1.56226ZM16.6153 14.0501H14.6247C14.2483 15.2284 13.6919 16.3414 12.9751 17.3495C12.4459 17.5794 11.8925 17.7491 11.3254 17.8554C12.3414 16.7516 13.1233 15.4534 13.6239 14.0392H10.3686V17.9708H9.43929V14.0501H6.16747C6.66741 15.4663 7.44934 16.7664 8.46599 17.8719C7.91057 17.7667 7.36841 17.6008 6.84933 17.377C6.12998 16.3604 5.57342 15.238 5.19967 14.0501H3.1761C3.00053 13.7296 2.84801 13.397 2.71969 13.0549H4.91923C4.71313 12.1714 4.60616 11.2676 4.6003 10.3604C4.60109 9.51952 4.68955 8.68099 4.86424 7.85844H2.61521C2.73106 7.51731 2.87071 7.18473 3.03313 6.86315H5.12819C5.52168 5.55405 6.1313 4.31995 6.93181 3.21191C7.43987 3.00204 7.96895 2.84719 8.50998 2.75001C7.41565 3.92372 6.59003 5.32165 6.09049 6.84665H9.43929V2.66203H10.3686V6.86315H13.7174C13.2188 5.34059 12.3951 3.94464 11.3034 2.772C11.8436 2.86209 12.3727 3.00956 12.8816 3.21191C13.6774 4.31195 14.2851 5.53652 14.6797 6.83566H16.7528C16.9152 7.15723 17.0548 7.48981 17.1707 7.83095H14.9381C15.1166 8.66229 15.2069 9.51014 15.2076 10.3604C15.2048 11.2729 15.0996 12.1823 14.8942 13.0714H17.0937C16.9575 13.4085 16.7977 13.7356 16.6153 14.0501Z" fill="white"/>
</g>
<defs>
<clipPath id="clip0_17_825">
<rect width="19.7959" height="19.7959" fill="white" transform="translate(-0.00229645 0.462646)"/>
</clipPath>
</defs>
</svg>
