<svg width="20" height="21" viewBox="0 0 20 21" fill="none" xmlns="http://www.w3.org/2000/svg">
<path fill-rule="evenodd" clip-rule="evenodd" d="M10 0.952637C10.855 0.952637 11.732 0.974637 12.582 1.01064L13.586 1.05864L14.547 1.11564L15.447 1.17664L16.269 1.24064C17.1612 1.30853 18.0008 1.68907 18.64 2.31524C19.2791 2.94141 19.6768 3.77303 19.763 4.66364L19.803 5.08864L19.878 5.99864C19.948 6.94164 20 7.96964 20 8.95264C20 9.93564 19.948 10.9636 19.878 11.9066L19.803 12.8166L19.763 13.2416C19.6768 14.1324 19.2789 14.9641 18.6396 15.5903C18.0002 16.2165 17.1604 16.597 16.268 16.6646L15.448 16.7276L14.548 16.7896L13.586 16.8466L12.582 16.8946C11.7218 16.9319 10.861 16.9512 10 16.9526C9.13902 16.9512 8.27817 16.9319 7.418 16.8946L6.414 16.8466L5.453 16.7896L4.553 16.7276L3.731 16.6646C2.83881 16.5967 1.9992 16.2162 1.36004 15.59C0.720888 14.9639 0.323191 14.1322 0.237 13.2416L0.197 12.8166L0.122 11.9066C0.0458327 10.9238 0.00513964 9.93845 0 8.95264C0 7.96964 0.052 6.94164 0.122 5.99864L0.197 5.08864L0.237 4.66364C0.323157 3.77319 0.720712 2.94169 1.35966 2.31554C1.99861 1.6894 2.83799 1.30875 3.73 1.24064L4.551 1.17664L5.451 1.11564L6.413 1.05864L7.417 1.01064C8.2775 0.973364 9.13869 0.954026 10 0.952637ZM8 6.52764V11.3776C8 11.8396 8.5 12.1276 8.9 11.8976L13.1 9.47264C13.1914 9.42003 13.2673 9.34426 13.3201 9.25297C13.3729 9.16168 13.4007 9.05809 13.4007 8.95264C13.4007 8.84718 13.3729 8.74359 13.3201 8.6523C13.2673 8.56101 13.1914 8.48525 13.1 8.43264L8.9 6.00864C8.80876 5.95596 8.70526 5.92824 8.5999 5.92825C8.49455 5.92827 8.39106 5.95603 8.29983 6.00873C8.20861 6.06144 8.13287 6.13724 8.08024 6.2285C8.02761 6.31977 7.99993 6.42328 8 6.52864V6.52764Z" fill="white"/>
</svg>
